<?xml version="1.0" encoding="UTF-8" standalone="no"?> <!-- Created with Vectornator for iOS (http://vectornator.io/) --><!DOCTYPE svg PUBLIC "-//W3C//DTD SVG 1.1//EN" "http://www.w3.org/Graphics/SVG/1.1/DTD/svg11.dtd">
<svg style="fill-rule:evenodd;clip-rule:evenodd;stroke-linecap:round;stroke-linejoin:round;" xmlns:vectornator="http://vectornator.io" xmlns:xlink="http://www.w3.org/1999/xlink" xmlns="http://www.w3.org/2000/svg" xml:space="preserve" version="1.1" viewBox="0 0 4316.03 3831.13">
<metadata>
<vectornator:setting key="DynamicGuides" value="1"/>
<vectornator:setting key="Units" value="Points"/>
<vectornator:setting key="RulersVisible" value="1"/>
<vectornator:setting key="SnapToGuides" value="1"/>
<vectornator:setting key="GridSpacing" value="36"/>
</metadata>
<defs/>
<g id="Pordenone" vectornator:layerName="Pordenone">
<path stroke="#000000" stroke-opacity="0" stroke-width="3" d="M542.613+930.732L541.005+921.58L539.733+910.132L538.373+898.036L533.541+893.548L533.477+893.492L527.549+890.332L514.149+883.292L485.789+853.652L482.173+847.5L472.925+848.156L469.421+850.316L461.645+856.068L457.149+859.908L433.773+882.188L426.973+894.948L425.357+898.26L403.013+926.836L391.125+932.348L389.109+932.884L369.453+923.652L364.413+921.124L367.829+939.572L368.469+942.852L368.501+942.94L369.845+946.556L372.093+949.82L374.045+952.404L379.165+961.452L380.357+966.42L385.693+1001.48L350.693+1032.15L348.717+1033.76L347.229+1033.96L325.573+1039.44L293.245+1064.87L266.437+1054.6L262.765+1053.15L267.789+1060.44L271.813+1083.32L272.533+1090.76L273.093+1097.2L268.789+1104.29L265.133+1110.24L247.693+1137.02L241.605+1140.01L213.629+1147.25L210.605+1147.47L185.349+1144.69L166.557+1140.05L161.509+1137.04L159.389+1135.92L156.837+1136.47L153.605+1138.32L153.125+1138.58L150.709+1140.4L148.421+1142.6L138.765+1156.2L120.941+1158.12L119.445+1158.76L89.1168+1182.31L92.1968+1186.38L95.2448+1190.4L97.9088+1194.88L99.8368+1201.05L100.909+1204.69L100.749+1207.47L83.1648+1271.97L75.7408+1277.2L65.5248+1283.92L28.2128+1306.76L26.1088+1307.96L24.9408+1309.54L7.54079+1345.79L2.50079+1361.38L2.52479+1361.44L4.08479+1365.48L4.10879+1365.52L5.72479+1368.67L3.27679+1377.32L10.7648+1411.52L12.1808+1412.68L12.7408+1413.16L14.2608+1414.36L15.9168+1414.86L21.0528+1415.27L35.4208+1439.92L40.4288+1453.76L41.8768+1457.16L43.0368+1459.43L47.7568+1466.97L49.3968+1468.82L50.8688+1468.15L52.6368+1465.91L53.8528+1464.41L60.1328+1463.27L62.1808+1463.07L62.9808+1463.44L63.9408+1463.92L71.2608+1467.77L72.7648+1468.68L86.1008+1478.93L94.2688+1489.32L99.4368+1496.86L107.901+1504.54L113.941+1505.58L116.325+1504.32L118.733+1503.01L121.085+1502.52L123.389+1503.42L129.053+1507.06L131.877+1509.08L141.189+1522.58L141.029+1522.84L152.197+1526.25L155.069+1525.33L158.405+1523.77L172.261+1516.91L186.701+1509.7L190.589+1507.7L223.101+1507.3L233.853+1520.09L239.309+1528.42L239.149+1533.15L238.269+1538.58L236.789+1541.13L235.565+1542.28L233.621+1543.6L231.037+1544.43L228.869+1544.48L227.237+1545.86L223.541+1551.24L216.565+1568.16L217.517+1569.19L221.189+1572.88L226.541+1578.08L230.061+1581.07L232.741+1582.43L235.405+1583.32L265.597+1578.58L286.613+1575.27L289.181+1575L292.757+1574.69L295.365+1574.56L298.357+1574.68L327.733+1578.35L341.141+1580.68L335.941+1585.65L330.517+1610.28L329.877+1613.24L330.117+1616.64L330.357+1618.84L345.309+1671.41L352.125+1686.18L369.309+1713.79L391.109+1731.65L393.341+1732.55L405.453+1735.16L427.405+1745.49L462.637+1763.12L469.477+1772.19L474.237+1778.69L474.317+1779.82L474.157+1782.66L473.101+1786.04L472.541+1787.24L471.349+1789.66L470.213+1794.09L474.997+1818.8L477.565+1824.36L480.285+1827.36L481.805+1829.26L482.365+1831.92L482.285+1834.46L481.277+1837.86L480.053+1841.72L477.493+1849.28L477.973+1860.43L475.605+1861.42L472.437+1862.77L469.853+1864.78L469.053+1865.83L469.021+1865.87L467.965+1867.47L467.245+1868.61L463.653+1877.01L463.173+1880.76L464.573+1883.05L466.597+1885.1L468.477+1886.5L469.901+1889.92L469.741+1890.88L469.581+1892.16L469.021+1893.4L462.221+1907.36L461.741+1908.21L457.997+1913.48L454.989+1916.47L444.213+1949.36L443.573+1951.12L440.741+1954.87L411.053+1981.44L407.189+1983.85L390.685+1993.12L363.285+2007.61L345.045+2017.02L331.389+2023.8L329.501+2023.88L321.765+2022.69L319.773+2022.22L316.941+2021.55L290.941+2052.08L288.093+2059.84L284.805+2070.36L280.709+2081.17L275.909+2090L271.541+2096.32L262.213+2108.82L259.141+2112.57L253.733+2113.88L242.629+2113.69L233.629+2141.68L230.117+2165.02L230.165+2170.12L229.525+2172.57L227.805+2173.44L224.437+2174.61L220.557+2175.62L213.093+2177.28L216.637+2182.41L221.413+2188.43L223.173+2190.29L231.853+2199.37L232.717+2200.18L234.125+2200.95L235.109+2201.44L237.813+2203.2L239.725+2204.5L241.157+2206.32L243.717+2209.83L254.741+2225.34L254.781+2225.4L255.749+2226.92L256.997+2229.44L260.029+2245.3L260.045+2247.11L259.213+2249.28L258.573+2250.68L256.109+2254.16L264.021+2278.68L264.261+2283.2L266.165+2297.4L279.709+2323L291.789+2341L292.509+2349.76L291.293+2369.96L285.845+2400.76L279.501+2464.42L275.917+2483.04L275.957+2483.44L276.013+2483.75L285.149+2513.67L285.389+2514.36L285.469+2514.6L285.493+2514.64L286.293+2515.84L291.293+2517.74L303.669+2521.52L305.749+2521.86L307.517+2522.11L309.573+2522.18L315.213+2521.4L318.613+2520.73L328.797+2517.07L330.181+2516.3L360.133+2514.67L362.125+2515.46L366.029+2519.13L366.053+2526.84L367.741+2531.45L368.541+2532.8L386.053+2560.64L415.293+2581.05L417.325+2582.34L428.853+2587.68L438.821+2592.3L444.661+2593.23L446.629+2592.68L448.661+2591.95L462.525+2591.63L482.645+2592.85L485.789+2593.32L487.829+2594.04L488.645+2594.45L489.957+2595.14L494.101+2597.34L498.077+2599.65L499.565+2600.53L501.773+2603L504.069+2606L506.757+2612.56L506.917+2613.13L506.901+2614.56L503.773+2619.82L501.797+2623.03L500.549+2624.6L500.789+2626.47L500.829+2626.64L513.349+2651.24L521.629+2662.94L523.301+2664.72L528.245+2669.73L530.029+2670.57L548.229+2673.44L546.125+2675.43L535.701+2684.15L534.301+2684.96L520.357+2690.58L519.877+2690.57L516.205+2689.72L511.965+2689.03L505.965+2690.23L504.541+2692.21L529.845+2720.2L548.605+2733.27L559.229+2738.48L563.693+2740.45L572.621+2749.28L583.517+2787.52L585.629+2796.86L584.909+2797.74L584.077+2798.61L581.133+2798.24L580.733+2798.2L577.189+2798.34L574.157+2799.6L572.893+2800.92L572.845+2800.98L565.349+2812.43L566.173+2814.94L569.501+2816.86L619.445+2825.4L627.021+2842.1L644.709+2874.28L645.029+2878.16L644.389+2882.37L642.893+2886.66L632.445+2899.4L630.869+2900.63L628.309+2901.39L624.045+2901.94L620.229+2901.43L626.581+2913.43L631.365+2937.27L631.437+2937.57L645.509+2950.09L647.797+2950.92L651.405+2950.29L652.405+2949.91L654.077+2948.61L661.525+2935.7L661.765+2934.62L660.573+2933.17L659.477+2932.06L658.341+2930.68L658.741+2929.14L659.741+2928.64L661.757+2928.97L661.797+2929L664.197+2930.56L665.933+2932.31L667.381+2933.98L668.205+2935.58L669.381+2939.19L671.085+2944.89L671.245+2946.05L682.261+2955.7L696.501+2950.69L699.741+2949.72L702.165+2950.64L704.709+2952.99L706.869+2956.17L707.797+2959.18L708.437+2961.72L713.357+2973L722.077+2988.19L723.173+2988.91L726.661+2989.27L737.317+2989.01L738.829+2988.64L739.797+2988.05L741.661+2986.84L742.709+2985.88L743.429+2985.08L743.669+2982.75L742.845+2980.69L740.637+2977.8L737.525+2975.16L734.957+2973.24L734.237+2971.73L734.877+2970.92L735.957+2970.19L745.669+2963.93L746.741+2963.51L747.709+2963.45L748.349+2963.68L743.997+2949.44L743.037+2946.12L740.229+2932.42L742.069+2930.45L753.445+2918.98L770.749+2905.94L772.549+2908.94L773.517+2911.18L775.973+2916.1L777.981+2919.12L786.549+2928.7L788.133+2930.2L789.517+2931.33L798.317+2937.39L801.109+2938.5L812.453+2942.98L817.245+2942.12L819.173+2940.53L820.029+2939.78L839.133+2950.4L864.277+2971.08L880.029+2969.31L881.077+2969.64L882.285+2970.78L882.925+2971.37L883.645+2972.09L887.837+2980.44L887.909+2981.52L883.917+2991.68L881.237+2997.17L901.101+3008.99L901.661+3011.05L901.021+3018.54L894.461+3026.52L891.029+3029.93L910.141+3052.56L912.701+3054.45L915.221+3057.29L918.797+3061.48L921.805+3065.66L922.125+3067.66L921.965+3069.57L921.725+3070.22L941.653+3075.76L943.365+3076.12L945.677+3075.89L954.389+3072.15L956.069+3071.27L958.941+3069.18L959.821+3068.48L969.389+3060.33L1003.56+3027.77L1011.74+3020.31L1022.19+3004.59L1045.14+2980.85L1046.51+2980.11L1047.6+2979.48L1058.92+2968.48L1065.59+2960.82L1065.75+2960.64L1073.96+2950.24L1075.5+2947.9L1076.68+2945.55L1077.16+2944.31L1088.55+2929.32L1103.12+2911.83L1106.13+2909.39L1111.87+2910.79L1117.8+2917.4L1118.2+2918.53L1117.56+2920L1117+2920.76L1124.62+2931.53L1125.6+2932.92L1127.51+2935.07L1130.09+2937.78L1136.05+2943.51L1138.73+2946.04L1140.37+2947.31L1140.77+2947.62L1143.24+2945.96L1152.52+2939.36L1154.47+2937.88L1155.33+2937.23L1156.7+2935.79L1158.88+2933.31L1162.28+2929.03L1165.21+2924.84L1173.11+2914.64L1180.09+2906.39L1182.5+2903.92L1184.42+2902.23L1198.95+2891.38L1201.73+2889.72L1210.76+2880.86L1210.73+2880.81L1210.57+2880.6L1203.44+2872.57L1211.04+2863.93L1212.68+2862.06L1227.6+2852.68L1233.4+2850.28L1240.52+2847.85L1242.5+2848.34L1246+2849.57L1250.35+2853.44L1264.05+2866.12L1286.71+2878.09L1295.45+2877.57L1306.13+2882.77L1306.18+2882.8L1306.5+2883.04L1305.86+2892.72L1294.76+2921.36L1293.47+2923.24L1291.6+2924.67L1291.2+2925.62L1291.12+2926.96L1294.74+2950.81L1299.16+2960.04L1299.72+2960.72L1299.96+2961L1313.71+2970.24L1318.12+2970.76L1320.18+2970.08L1345.84+2955.86L1345.84+2954.99L1345.84+2953.49L1345.91+2933.97L1361.47+2914.92L1362.6+2915.5L1368.38+2916.3L1372.58+2915.84L1386.27+2905.84L1396.58+2894.89L1395.19+2886.18L1394.55+2882.15L1394.52+2881.96L1394.04+2880.4L1394.36+2872.86L1442.47+2863.61L1459.95+2860.93L1490.54+2869.65L1500.68+2879.12L1503.23+2888.16L1485.48+2923.19L1490.12+2926.19L1539.52+2958.44L1540+2960.54L1537.82+2969.65L1542.19+2971.74L1545.88+2972.48L1546.44+2972.47L1564.32+2961.68L1594.52+2949.64L1605.18+2954.78L1616.88+2936.29L1620+2930.68L1622.3+2933.72L1628.42+2945.04L1629.86+2950.73L1630.74+2955.9L1632.54+2959.5L1638.62+2970.79L1642.13+2977.12L1644.22+2980.84L1677.71+2970.14L1686.48+2967.18L1688.03+2966.67L1710.96+2963.09L1705.13+2941.69L1703.53+2940.73L1702.17+2938.31L1701.93+2917.84L1703.28+2888.86L1712.48+2877.34L1720.57+2873.2L1730.42+2874.98L1732+2876.97L1733.95+2879.41L1734.75+2880.43L1736.76+2883.58L1739.21+2887.43L1739.69+2888.26L1739.93+2888.68L1743.67+2895.57L1764.28+2913.68L1777.97+2920.97L1778.99+2923.21L1785.52+2923L1787.84+2922.65L1790.8+2921.94L1792.1+2921.24L1785.54+2857.44L1779.64+2830.95L1766+2779.75L1753.16+2769.18L1738.34+2757.23L1719.76+2742.56L1717.89+2741.79L1710.93+2740.32L1707.89+2739.68L1705.22+2739.41L1699.74+2739.13L1671.56+2719.69L1667.35+2714.72L1655+2706.92L1647.85+2702.58L1633.37+2683.44L1622.68+2669.13L1620.63+2665.6L1610.21+2641.73L1605.35+2629.64L1591.96+2565.41L1586.48+2535.28L1584.58+2524.8L1575.15+2457.52L1575.07+2451.27L1578.4+2420.79L1580.31+2404.27L1581.76+2397.75L1589.64+2367.04L1597.27+2322.95L1596.47+2310.74L1596.45+2307.8L1596.69+2303.91L1597.09+2299.67L1603.3+2241.89L1605.38+2221.7L1608.69+2174.41L1607.31+2151.84L1607.07+2131.18L1607.71+2113.93L1608.99+2106.08L1608.19+2079.61L1609.06+2069.84L1610.29+2060.16L1611.52+2055.4L1613.86+2049.38L1621.46+2032.02L1637.86+1990.16L1643.66+1950.71L1653.04+1888.27L1655.68+1876.68L1659.1+1864.14L1663.4+1853.1L1666.2+1853.74L1670.97+1837.72L1672.56+1831.96L1673.28+1828.2L1673.68+1825.67L1673.12+1819.48L1673.36+1815.92L1674.51+1812.08L1683.19+1801.68L1693.88+1782.98L1691.79+1774.31L1692.19+1770.77L1694.56+1764.32L1698.88+1760.02L1701.76+1755.8L1715.03+1702.84L1719.32+1670.22L1718.6+1665.75L1718.28+1661.64L1718.24+1657.34L1719.45+1653.41L1723.66+1643.69L1725.92+1639.37L1730.32+1634.14L1735.9+1629.91L1740.56+1626.79L1732.81+1613.45L1729.46+1608.53L1722.81+1599.64L1722.73+1599.53L1718.84+1595.42L1718.52+1595.44L1714.91+1595.71L1709.45+1595.83L1699.23+1593.96L1697.6+1593.64L1696.62+1593.24L1686.12+1584.38L1685.72+1582.88L1683.37+1573.76L1683.05+1572.67L1680.35+1571.06L1669.73+1566.6L1666.28+1565.81L1698.92+1548.41L1715.58+1527.61L1723.92+1513.21L1724.72+1512.42L1725.99+1511.12L1726.55+1510.54L1741.12+1499.96L1750.89+1494.04L1759.56+1490.2L1761.98+1488.91L1767.08+1479.68L1765.39+1461.65L1764.11+1458.16L1763.17+1426.33L1767.01+1422.88L1768.88+1419.77L1773.19+1411.95L1773.75+1409.78L1770.12+1395.41L1769.3+1393.42L1766.36+1386.97L1764.01+1380.56L1771.29+1364.46L1774.73+1362.12L1781.82+1359.88L1792.24+1355.92L1796.72+1354.14L1799.7+1352.6L1801.09+1351.88L1804.09+1349.9L1806.18+1348.4L1809.09+1345.84L1795.59+1337.36L1745.01+1308.01L1741.58+1305.6L1717.44+1279.09L1716.03+1274.7L1709.3+1248.34L1709.46+1245.91L1710.28+1242.59L1715.59+1234.75L1718.66+1233.1L1721.04+1232.85L1723.26+1232.21L1728.92+1230.24L1729.4+1229.9L1730.84+1228.78L1753.8+1206.34L1762.88+1196.93L1767.25+1190.21L1768.82+1187.32L1768.1+1184L1763.09+1163.71L1763.25+1148.58L1747.38+1144.28L1742.87+1141.96L1738.26+1138.84L1734.66+1135.73L1732.46+1133.45L1731.9+1131.67L1729.92+1117.18L1724.92+1116.4L1722.67+1116.26L1698.03+1119.88L1685.93+1125.95L1683.75+1128.12L1671.12+1128.11L1661.14+1128.09L1657.91+1125.59L1654.2+1122L1648.38+1114.64L1647.66+1113.43L1645.47+1109.33L1642.3+1105.13L1641+1103.65L1639.77+1102.42L1631.24+1094.52L1621.19+1088.74L1604.74+1081.32L1603.77+1084.24L1596.9+1098.72L1587.85+1116.95L1586.02+1120.32L1582.16+1125.2L1545.39+1139.62L1541.34+1140.09L1520.17+1141.65L1516.4+1140.8L1499.12+1133.36L1498.8+1132.1L1499.28+1130.28L1499.76+1128.85L1502.56+1122.94L1506.84+1112.26L1511.32+1099.93L1510.92+1099.3L1509+1098.52L1507.29+1099.92L1505.01+1101.16L1503.16+1101.21L1499.48+1100.36L1476.22+1093.54L1460.95+1086.96L1458.26+1085.92L1456.38+1085.39L1442.88+1087.54L1432.16+1089.32L1421.98+1091.12L1408+1093.8L1403.59+1095.11L1393.19+1094.2L1389.51+1093.2L1387.21+1090.29L1386.49+1086.72L1386.01+1083.03L1383.74+1079.6L1365.73+1057.81L1353.76+1046.44L1348.08+1044.4L1344.8+1043.45L1340.24+1042.25L1328.25+1039.1L1326.36+1037.92L1319.76+1035.32L1315.89+1039.86L1312.92+1043.4L1310.47+1046.01L1309.35+1047.2L1302.27+1048.48L1289.84+1050.15L1266.48+1046.16L1235.06+1050.08L1234.9+1051.44L1236.82+1056.87L1238.79+1060.54L1242.49+1065.96L1235.66+1085.44L1203.8+1097.14L1186.1+1102L1166.68+1106.54L1154.54+1108.4L1151.12+1108.07L1117.17+1118.72L1092.84+1136.49L1091.1+1139.26L1081.84+1145.64L1055.36+1156.53L1046.9+1159.21L1043.16+1157.44L1008.55+1111.34L1007.36+1109.24L1006.8+1107.08L1006.08+1104.39L1006+1102.17L1006.4+1094.96L1003.96+1093.88L998.445+1091.56L966.533+1079.1L925.141+1084L919.829+1085.69L915.973+1087.88L907.381+1100.73L906.237+1103.38L905.437+1106.48L904.565+1108.81L902.853+1111.23L901.309+1112.16L885.397+1117.73L881.933+1118.02L878.309+1117.6L857.733+1108.91L855.237+1108.69L842.909+1096.04L840.621+1092.72L839.149+1088.4L838.749+1086.12L837.269+1084.85L829.005+1079.68L826.125+1078.6L804.061+1083.6L795.429+1086.72L791.005+1088.58L789.157+1091.08L785.893+1093.04L782.445+1093.88L778.813+1092.97L771.077+1090.32L741.805+1074.4L753.749+1066.56L755.397+1065.65L763.365+1058.22L768.189+1053.72L768.669+1052.17L768.429+1049.95L767.381+1047.79L717.253+1007.2L715.741+1007.13L708.805+1009.43L705.781+1011.27L704.093+1013.41L702.053+1015.15L700.293+1016.12L693.477+1017.99L661.133+1009.2L639.405+1002.2L633.637+1013.64L632.125+1016.44L629.701+1019.59L626.573+1022.54L623.853+1024.98L617.397+1028.1L600.453+1035.23L597.637+1033.77L583.901+1024.96L581.605+1023.28L579.053+1020.9L578.813+1020.64L564.573+1005.24L561.637+1000.2L558.957+994.78L555.477+987.164L553.717+979.86L549.325+961.204L542.573+930.732L542.613+930.732Z" fill="#ffffff" stroke-linecap="butt" opacity="1" stroke-linejoin="miter"/>
</g>
<g id="Trieste" vectornator:layerName="Trieste">
<path stroke="#000000" stroke-opacity="0" stroke-width="3" d="M3516.04+3049.37L3462.15+3027.84L3443.2+3014.6L3408.55+3039.31L3408.95+3040.18L3411+3044.27L3412.15+3051.57L3410.86+3053.12L3409.59+3054.55L3409.43+3054.69L3407.07+3055.47L3404.27+3055.8L3403.95+3055.8L3395.85+3072L3399.23+3098.15L3400.9+3105.58L3401.62+3108.49L3402.69+3112.94L3428.07+3130.92L3452.13+3141.72L3460.93+3144.87L3522.8+3152.55L3539.52+3157.08L3544.68+3165.02L3556.53+3182.84L3559.45+3187.11L3565.87+3194.85L3569.07+3197.48L3570.23+3198.33L3572.33+3199.35L3574.33+3200.42L3580.19+3203.8L3584.15+3206.56L3600.09+3219.16L3611.07+3228.32L3613.35+3230.36L3614.33+3233.26L3615.79+3235.28L3625.31+3243.95L3627.31+3245.46L3634.65+3250.57L3637.35+3252.35L3637.67+3252.51L3645.53+3257.88L3657.33+3266.28L3660.39+3268.58L3660.95+3269.06L3665.25+3273.35L3754.73+3363.89L3755.57+3364.8L3755.97+3365.28L3757.42+3367.56L3758.63+3370.16L3759.9+3373.36L3759.26+3377.18L3758.86+3378.88L3755.98+3381.84L3784.19+3399.56L3811.8+3414.41L3812.6+3414.81L3815.79+3417.41L3817.31+3418.76L3823.31+3424.43L3824.22+3425.36L3846.91+3448.19L3866.84+3471.78L3868.19+3474.42L3875.74+3502.08L3881.67+3522.62L3885.35+3532.14L3891.59+3546.45L3897.95+3544.12L3902.15+3552.54L3903.17+3554.81L3909.42+3570.16L3908.62+3572.08L3907.9+3573.36L3907.34+3574L3885.75+3593.88L3885.19+3594.36L3883.71+3595.58L3882.24+3596.38L3880.63+3596.46L3879.53+3596.06L3879.05+3595.82L3873.53+3592.29L3873.54+3588.04L3874.02+3585.26L3875.47+3584.15L3871.33+3583.2L3853.55+3600.46L3853.39+3602.12L3852.99+3612.63L3856.57+3632.62L3878.28+3629.32L3880.73+3629.72L3891.4+3634.92L3892.25+3636.32L3892.21+3640.29L3889.1+3641.51L3871.23+3648.2L3874.43+3655.64L3878.37+3659.41L3880.59+3658.61L3901.07+3650.89L3905.62+3632.53L3927.3+3632.61L3927.46+3632.85L3930.74+3640.48L3930.9+3640.88L3934.06+3648.78L3922.61+3653.71L3916.75+3668.72L3916.67+3669.12L3916.71+3670.32L3926.22+3687.37L3916.07+3717.12L3916.09+3717.17L3941.15+3716.07L3950.34+3712.27L3954.41+3710.84L4003.55+3719.36L4016.34+3735.25L4016.9+3736.11L4004.91+3726.4L3998.23+3727.91L3996.44+3728.31L3993.75+3729.03L3991.27+3730.08L3986.75+3733.84L3957.59+3759.72L3955.7+3761.92L3932.31+3751.32L3929.78+3748.13L3926.33+3745.64L3925.25+3745L3899.58+3737.75L3853.68+3728.27L3833.04+3727.71L3808.73+3728.43L3775.99+3739.73L3775.59+3739.89L3775.11+3740.45L3774.71+3741.88L3774.79+3744.59L3776.74+3761.35L3778.95+3767.25L3784.93+3779.24L3787.97+3779.29L3791.22+3778.89L3811.9+3776.32L3833.03+3770.76L3850.27+3767.14L3854.08+3769.58L3880.98+3784.72L3923.94+3808.6L3931.19+3812.32L3941.71+3817.19L3944.74+3818.21L3957.73+3821.57L3965.43+3822.66L4021.23+3828.63L4031.48+3827.78L4051.27+3825.8L4094.27+3823.1L4106.79+3820.74L4130.73+3814.54L4131.29+3814.3L4130.73+3810.51L4129.7+3806.05L4128.67+3801.82L4129.07+3799.96L4135.35+3790.52L4137.23+3788.17L4140.4+3785.84L4152.43+3778.25L4154.83+3776.86L4159.03+3775.84L4163.07+3775.28L4166.42+3774.64L4168.71+3773.57L4169.91+3772.13L4174.27+3758.91L4176.24+3749.95L4177.09+3741.99L4177.01+3733.35L4177.73+3728.59L4178.37+3727.06L4181.19+3726.08L4184.91+3724.8L4192.83+3722.87L4201.39+3720.98L4206.4+3718.36L4281.51+3670.24L4311.4+3648.57L4313.53+3639.87L4305.43+3633.32L4274.6+3609.96L4271.11+3607.6L4266.37+3606.03L4262.17+3604.85L4258.26+3604.29L4254.05+3603.97L4239.07+3595.74L4233.31+3591.97L4207.32+3574.36L4183.44+3554.62L4159.37+3533.9L4152.63+3527.98L4149.71+3524.76L4148.29+3522.68L4144.53+3516.93L4144.05+3516.13L4134.91+3502.12L4118.51+3477.68L4113.9+3471.35L4110.74+3468.48L4106.95+3465.47L4088.64+3451.36L4080.96+3439.08L4078.05+3431.78L4076.64+3427.82L4076.96+3426.37L4078.47+3420.79L4079.27+3418.46L4080.45+3416.64L4084.42+3413.44L4088.49+3410.2L4089.38+3409.16L4089.62+3407.53L4088.81+3402.36L4084.87+3378.32L4083.92+3375.65L4067.4+3352.32L4066.03+3350.47L4062.9+3347.82L4060.72+3346.21L4051.95+3339.84L4048.35+3337.27L4036.22+3328.72L4023.39+3319.74L4018.15+3312.8L4010.8+3302.6L4003.63+3289.88L3998.39+3276.12L3995.73+3268.9L3994.05+3263.14L3992.52+3259.13L3988.27+3253.21L3982.99+3248.48L3974.15+3242.43L3963.99+3236.4L3961.47+3234.89L3957.24+3232.76L3948.75+3228.64L3923.33+3226.24L3904.99+3220.95L3901.93+3219.44L3901.13+3219.04L3899.83+3217.82L3883.39+3201.76L3872.72+3202.72L3847.7+3203.6L3846.12+3203.01L3816.73+3185.85L3814.3+3183L3814.14+3182.82L3813.42+3181.8L3818.05+3181.02L3820.31+3180.76L3823.18+3180.24L3816.68+3173.72L3804+3162.64L3798.27+3160.2L3783.67+3154.54L3780.49+3153.39L3757.3+3140.02L3747.61+3133.93L3735.55+3125.28L3730.31+3120.76L3726.04+3116.9L3719.23+3110.26L3717.26+3108.03L3713.91+3104.24L3706.88+3096.98L3701.83+3092.08L3694.15+3085.26L3690.06+3081.64L3680.85+3075.4L3669.79+3068.11L3658.11+3072.72L3647.82+3058.53L3642.43+3046.62L3640.63+3044.28L3626.58+3042.98L3616.74+3042.08L3610.2+3041.78L3605.81+3042.53L3601+3043.9L3595.16+3044.89L3561.71+3049.1L3526.97+3052.04L3516.23+3049.28L3516.04+3049.37Z" fill="#ffffff" stroke-linecap="butt" opacity="1" stroke-linejoin="miter"/>
</g>
<g id="Gorizia" vectornator:layerName="Gorizia">
<path stroke="#000000" stroke-opacity="0" stroke-width="3" d="M2852.04+3306.07L2854.07+3302.78L2857.37+3302.78L2857.87+3307.34L2860.16+3309.88L2862.19+3311.91L2862.44+3313.68L2860.16+3315.46L2859.4+3311.65L2858.63+3310.64L2856.35+3312.16L2853.31+3312.67C2853.31+3312.67+2852.8+3311.15+2851.79+3310.64C2850.77+3310.13+2849.5+3308.36+2849.5+3308.36C2849.5+3308.36+2852.04+3306.07+2852.04+3306.07ZM2746.32+3423.99L2750.99+3418.96L2754.21+3421.48L2757.44+3429.73L2766.05+3433.31L2771.79+3430.44L2772.51+3426.14L2773.94+3431.88L2772.51+3436.54L2767.13+3437.98L2761.75+3439.77L2757.44+3435.82C2757.44+3435.82+2754.57+3431.16+2753.14+3430.8C2751.7+3430.44+2747.4+3428.29+2747.4+3428.29C2747.4+3428.29+2746.32+3423.99+2746.32+3423.99ZM2574.55+3316.73L2578.1+3316.73L2584.19+3318.76L2585.2+3322.81L2580.13+3321.29C2580.13+3321.29+2579.11+3318.76+2577.08+3318.76C2575.05+3318.76+2574.04+3317.23+2574.55+3316.73ZM2535.99+3314.7L2539.54+3313.68L2542.08+3311.15L2544.62+3310.13L2547.15+3315.71L2549.69+3319.77L2554.25+3323.32L2557.81+3323.32L2561.86+3320.28L2567.44+3319.26L2568.46+3320.28L2563.89+3323.83L2561.86+3325.35L2557.81+3328.9L2554.76+3328.39L2552.73+3323.83L2547.15+3321.8L2543.6+3319.26L2541.57+3317.23L2537.01+3317.23L2533.96+3317.23C2533.96+3317.23+2535.99+3314.7+2535.99+3314.7ZM2603.46+3250.78L2607.52+3248.75L2611.58+3248.75L2611.58+3254.33L2610.06+3256.86L2607.01+3258.39L2603.97+3258.39L2601.94+3254.33C2601.94+3254.33+2603.46+3250.78+2603.46+3250.78ZM2746.52+3275.63L2743.48+3269.55L2747.54+3269.04L2752.61+3271.58L2754.64+3277.16L2749.56+3276.14C2749.56+3276.14+2746.52+3275.63+2746.52+3275.63ZM2510.12+3324.34L2510.12+3328.9L2512.66+3334.48L2516.21+3339.55L2518.74+3344.63L2521.79+3349.19L2521.79+3355.28L2521.28+3360.86L2531.43+3363.4L2556.28+3364.41L2564.4+3367.46L2573.02+3373.04L2581.65+3377.09L2596.87+3380.14L2614.62+3384.7L2622.74+3387.24L2631.87+3389.27L2629.33+3387.24L2618.17+3384.2L2600.42+3378.62L2586.72+3373.54L2578.1+3371.01L2572.52+3368.98L2571.5+3366.44L2577.59+3366.44L2588.24+3368.98L2597.37+3371.01L2610.06+3374.05L2615.13+3377.6L2621.22+3373.54C2621.22+3373.54+2621.22+3371.51+2618.68+3371.51C2616.14+3371.51+2612.09+3371.01+2612.09+3371.01L2611.07+3366.95L2606+3364.41L2599.4+3366.44L2594.33+3365.43L2593.82+3358.32C2593.82+3358.32+2598.9+3358.83+2600.93+3359.34C2602.96+3359.85+2607.52+3362.38+2609.55+3363.4C2611.58+3364.41+2615.64+3365.93+2617.67+3366.95C2619.7+3367.96+2622.23+3368.98+2625.28+3368.98C2628.32+3368.98+2635.93+3367.96+2635.93+3367.96C2635.93+3367.96+2640.5+3367.46+2642.52+3367.46C2644.55+3367.46+2649.63+3369.99+2649.63+3369.99L2653.18+3376.08L2657.74+3380.14L2663.32+3381.66L2669.92+3385.21L2678.04+3389.27L2687.17+3394.85L2698.33+3398.4C2698.33+3398.4+2704.92+3403.47+2707.46+3404.49C2710+3405.5+2713.55+3407.53+2715.58+3409.05C2717.6+3410.58+2723.19+3415.65+2723.19+3415.65C2723.19+3415.65+2728.77+3421.23+2730.79+3421.23C2732.82+3421.23+2736.88+3423.26+2736.88+3423.26C2736.88+3423.26+2739.93+3426.3+2739.93+3424.27C2739.93+3422.24+2742.97+3418.69+2740.43+3418.69C2737.9+3418.69+2735.87+3418.69+2735.87+3418.69C2735.87+3418.69+2732.32+3418.19+2731.3+3415.65C2730.29+3413.11+2726.74+3408.55+2726.74+3408.55L2722.17+3408.04L2715.58+3406.52L2711.01+3402.97C2711.01+3402.97+2712.02+3397.89+2710+3397.89C2707.97+3397.89+2704.92+3393.84+2704.92+3393.84L2700.36+3387.75L2697.82+3385.21L2697.31+3377.6L2694.78+3367.96C2694.78+3367.96+2695.28+3364.41+2695.28+3361.88C2695.28+3359.34+2700.36+3360.86+2700.36+3360.86L2701.88+3351.22L2701.88+3347.16L2695.79+3346.15L2687.17+3350.72L2679.56+3352.24L2672.96+3349.7C2672.96+3349.7+2666.87+3350.21+2666.87+3348.18C2666.87+3346.15+2666.37+3344.12+2666.37+3344.12L2661.8+3344.12L2656.73+3346.15L2653.69+3351.22L2658.76+3354.27L2661.8+3357.31L2661.29+3358.83L2655.21+3361.88L2651.66+3361.88L2648.1+3357.82L2645.06+3353.76L2641+3348.18L2638.47+3347.67L2632.38+3345.64L2630.86+3348.18L2624.77+3345.13L2621.73+3342.6L2621.73+3338.03L2626.29+3337.53L2629.84+3336L2636.44+3333.47L2641+3331.44L2642.52+3329.92L2648.61+3332.96L2652.67+3334.48L2655.21+3332.96L2653.69+3329.41L2649.12+3326.87L2649.63+3322.81L2656.22+3320.78L2660.79+3319.26L2674.48+3318.25L2682.6+3318.25L2686.15+3322.81L2688.18+3331.44L2686.66+3333.97L2679.56+3335.5L2676.01+3337.02L2673.47+3341.58L2676.01+3344.63L2679.56+3346.15L2681.08+3348.69L2684.63+3348.69L2686.66+3347.16L2688.69+3343.61L2686.66+3342.09L2686.66+3338.03L2689.7+3339.05L2694.78+3337.53L2697.82+3334.48L2699.85+3330.42L2707.97+3326.87L2708.98+3321.8L2713.55+3315.71L2712.02+3313.17L2699.85+3309.62L2694.78+3310.64L2682.6+3310.13L2676.51+3311.15C2676.51+3311.15+2671.44+3308.61+2668.9+3307.09C2666.37+3305.57+2664.85+3304.55+2664.85+3304.55L2659.27+3307.09L2653.18+3306.07L2657.24+3300.49C2657.24+3300.49+2658.76+3296.94+2660.79+3296.94C2662.82+3296.94+2669.41+3293.39+2669.41+3293.39L2671.95+3289.84L2674.48+3284.26L2677.53+3281.72L2680.06+3280.71L2684.12+3273.1L2686.66+3271.07L2688.69+3263.97L2688.18+3259.4L2686.15+3252.81L2681.59+3247.73L2676.01+3253.31L2674.99+3258.89L2672.46+3262.44L2668.9+3264.98L2670.43+3269.04L2665.86+3272.08L2661.8+3273.1L2662.82+3277.16L2662.31+3284.26L2661.8+3286.29L2657.74+3284.26L2654.19+3282.23L2653.18+3284.77L2649.63+3286.8L2642.52+3284.26L2639.99+3281.72L2637.96+3278.17L2633.9+3276.14L2630.35+3278.17L2628.32+3275.13L2625.78+3272.08L2622.74+3270.56L2619.7+3273.61L2614.12+3274.11L2610.56+3275.63L2605.49+3276.14L2604.48+3272.08L2602.45+3269.04L2604.48+3263.97L2603.97+3261.94L2601.94+3260.42L2599.91+3259.4L2597.88+3262.95C2597.88+3262.95+2599.4+3267.52+2596.36+3264.98C2593.32+3262.44+2592.3+3259.91+2592.3+3259.91L2589.77+3259.4L2590.27+3262.44L2590.27+3263.97L2588.24+3264.98L2585.2+3266.5L2584.69+3268.53L2582.16+3268.53L2583.17+3271.58L2583.17+3277.66L2583.17+3279.69L2577.08+3282.74L2575.05+3279.69L2576.07+3282.74L2577.59+3286.8L2578.6+3290.35L2580.13+3294.91L2581.65+3299.99L2588.24+3301.51L2593.32+3302.52L2595.85+3306.58L2598.39+3314.7L2598.39+3318.76L2600.42+3324.34L2592.81+3326.36L2581.14+3331.94L2573.53+3333.97L2563.89+3336L2556.28+3338.54L2554.76+3340.06L2551.72+3341.08L2549.69+3337.53L2546.14+3339.05L2540.05+3339.05L2534.47+3336L2528.89+3331.94L2523.82+3326.87L2520.27+3325.86L2518.74+3319.26L2516.21+3318.76L2511.64+3318.76L2510.63+3320.78C2510.63+3320.78+2510.12+3324.34+2510.12+3324.34ZM2818.3+3403.22L2825.91+3402.46L2829.97+3402.46L2831.24+3404.49L2831.24+3407.53C2831.24+3407.53+2829.46+3412.61+2830.23+3413.62C2830.99+3414.63+2831.75+3415.9+2831.75+3416.92C2831.75+3417.93+2831.75+3420.98+2831.75+3420.98L2828.45+3423.51L2827.18+3426.56L2827.18+3430.11L2825.66+3433.15L2823.12+3434.17C2823.12+3434.17+2820.84+3432.14+2819.83+3431.63C2818.81+3431.12+2815.01+3428.08+2815.01+3428.08L2811.2+3425.54L2805.11+3420.72L2800.8+3417.68L2799.53+3415.9L2802.58+3413.11L2807.14+3411.34L2811.46+3409.05L2814.5+3405.76C2814.5+3405.76+2818.3+3403.22+2818.3+3403.22ZM2817.29+3387.49L2823.88+3385.47L2826.42+3389.02L2823.12+3392.31C2823.12+3392.31+2818.3+3394.85+2818.3+3393.84C2818.3+3392.82+2817.54+3386.48+2817.29+3387.49ZM2904.7+3422.73L2907.57+3422.01L2909.72+3422.73L2911.87+3422.91L2912.77+3423.99L2912.23+3425.96L2910.79+3427.93L2909.72+3428.65L2909+3431.34L2907.21+3431.88L2903.98+3432.06L2902.36+3433.13L2902.18+3435.29C2902.18+3435.29+2901.29+3435.47+2901.11+3434.57C2900.93+3433.67+2900.93+3432.06+2900.93+3432.06L2898.06+3432.6L2895.37+3430.8C2895.37+3430.8+2895.01+3430.44+2894.11+3429.73C2893.22+3429.01+2891.96+3427.39+2891.96+3427.39L2889.99+3427.21L2887.3+3425.24L2884.97+3424.7C2884.97+3424.7+2882.81+3423.99+2882.46+3423.27C2882.1+3422.55+2881.74+3421.12+2881.74+3421.12L2881.56+3417.71C2881.56+3417.71+2881.56+3415.74+2881.56+3415.02C2881.56+3414.3+2881.92+3411.25+2881.92+3411.25L2882.1+3408.92L2883.17+3408.2L2888.19+3408.38L2889.99+3407.13L2891.6+3405.33L2892.86+3403.72L2893.04+3401.03L2892.86+3399.06L2892.14+3396.19L2892.68+3393.85L2895.01+3392.42L2896.62+3392.24L2898.06+3394.21L2898.78+3396.19L2898.6+3397.62L2897.52+3399.23L2896.27+3400.49L2896.27+3402.1L2896.27+3403.72L2895.73+3406.05C2895.73+3406.05+2895.73+3406.41+2895.01+3406.05C2894.29+3405.69+2893.4+3405.15+2893.4+3405.15L2892.68+3406.41L2893.4+3408.2L2894.47+3408.56L2894.83+3410.36L2895.01+3413.05L2895.01+3416.27L2895.19+3419.5L2896.62+3420.58L2898.78+3421.83L2900.21+3423.81L2901.29+3423.81L2902.01+3423.09L2903.26+3422.55C2903.26+3422.55+2904.7+3422.73+2904.7+3422.73ZM2914.38+3427.21L2916+3424.52L2918.33+3424.17L2921.38+3427.57L2922.63+3429.37L2921.56+3434.03C2921.56+3434.03+2919.58+3435.29+2918.69+3435.82C2917.79+3436.36+2915.64+3437.8+2915.64+3437.8L2912.05+3438.16L2908.82+3436.54L2908.64+3435.29C2908.64+3435.29+2908.64+3434.57+2909.54+3434.03C2910.44+3433.49+2912.05+3432.06+2912.05+3432.06L2912.95+3429.73C2912.95+3429.73+2914.38+3427.21+2914.38+3427.21ZM2914.56+3445.33L2916.17+3442.82C2916.17+3442.82+2918.33+3441.56+2919.04+3441.03C2919.76+3440.49+2923.35+3438.51+2923.35+3438.51L2925.68+3438.33L2926.94+3439.77C2926.94+3439.77+2929.63+3440.67+2930.34+3440.67C2931.06+3440.67+2933.21+3440.31+2933.21+3440.31L2935.72+3441.38C2935.72+3441.38+2936.08+3440.13+2937.52+3440.13C2938.95+3440.13+2939.49+3438.69+2939.49+3438.69L2941.82+3439.41L2945.23+3439.59L2948.1+3441.2L2950.43+3443.54L2951.69+3445.87L2949.53+3445.51L2948.64+3446.59L2946.84+3447.84L2946.49+3449.1L2945.95+3451.43L2944.15+3453.76L2942.36+3454.3L2940.57+3454.48L2939.13+3455.19L2936.44+3456.45L2935.72+3457.35L2933.39+3458.24L2932.32+3458.96L2930.88+3459.68L2930.16+3459.86L2927.65+3459.14L2925.68+3458.6L2924.25+3459.14L2921.73+3460.04L2921.02+3458.24C2921.02+3458.24+2920.84+3456.27+2920.66+3455.55C2920.48+3454.84+2920.48+3453.4+2920.48+3453.4C2920.48+3453.4+2919.22+3450.71+2918.51+3450.53C2917.79+3450.35+2916.53+3448.38+2916.53+3448.38L2915.46+3446.94C2915.46+3446.94+2914.56+3445.33+2914.56+3445.33ZM2851.43+3342.92L2854.3+3341.48L2858.6+3338.25L2862.19+3338.97L2867.21+3338.97L2865.06+3342.56L2861.83+3346.86L2860.04+3351.17L2866.85+3351.53L2869.72+3352.6L2869+3359.06L2866.49+3361.93L2862.55+3360.49L2858.24+3358.34L2858.6+3359.78L2859.68+3366.23L2857.52+3370.18L2852.86+3370.9L2849.27+3376.64L2840.66+3377.71L2836.36+3378.43L2832.41+3378.07C2832.41+3378.07+2832.77+3376.64+2832.06+3374.48C2831.34+3372.33+2830.26+3369.1+2830.26+3369.1C2830.26+3369.1+2830.98+3365.16+2829.54+3364.8C2828.11+3364.44+2825.6+3363+2825.6+3363L2822.37+3359.78C2822.37+3359.78+2824.16+3357.27+2825.6+3357.62C2827.03+3357.98+2832.77+3356.91+2832.77+3356.91L2837.8+3355.11L2840.66+3352.24L2842.82+3349.73L2842.46+3345.43L2844.25+3342.92L2848.2+3342.92C2848.2+3342.92+2851.43+3342.92+2851.43+3342.92ZM2813.23+3296.94L2819.57+3298.97L2823.38+3302.52L2825.66+3308.36L2819.32+3312.67L2817.04+3317.74C2817.04+3317.74+2813.74+3320.78+2812.72+3320.28C2811.71+3319.77+2808.92+3314.95+2807.9+3314.44C2806.89+3313.94+2803.59+3311.15+2803.59+3311.15L2801.06+3305.57L2806.38+3306.07L2810.44+3305.57L2812.98+3300.49C2812.98+3300.49+2813.23+3296.94+2813.23+3296.94ZM2941.07+3401.32L2942.34+3399.92L2944.62+3398.27L2946.52+3396.88L2949.31+3395.74L2951.47+3395.23L2953.5+3394.6L2954.01+3395.61L2951.47+3396.88L2949.69+3397.64L2946.9+3398.53L2945.76+3399.42L2944.37+3400.43L2942.97+3401.06L2941.7+3401.95C2941.7+3401.95+2941.07+3401.32+2941.07+3401.32ZM2965.8+3379.38L2967.32+3378.87L2968.59+3379.25L2968.85+3380.9L2967.96+3381.91L2966.31+3383.44L2964.66+3385.59L2963.77+3386.61L2962.76+3388L2960.86+3389.78L2959.59+3390.66L2958.19+3392.19L2956.8+3393.58L2955.02+3393.84L2954.39+3392.69L2955.53+3391.68L2956.8+3390.79L2958.19+3389.52L2959.46+3388.38L2960.98+3387.49C2960.98+3387.49+2961.74+3386.73+2961.74+3386.23C2961.74+3385.72+2961.87+3384.2+2961.87+3384.2L2962.5+3382.17L2964.15+3380.39C2964.15+3380.39+2965.8+3379.38+2965.8+3379.38ZM2976.26+3355.83L2979.85+3356.19C2979.85+3356.19+2981.1+3355.83+2981.1+3356.73C2981.1+3357.62+2981.1+3359.42+2981.1+3359.42L2982.18+3361.93L2982.9+3362.65L2983.25+3365.16L2979.85+3364.44L2977.69+3363.54L2976.8+3364.44L2976.44+3366.23L2974.47+3366.95L2973.39+3364.8L2973.39+3361.57L2974.65+3360.49L2976.8+3359.78L2978.05+3358.34L2976.8+3357.27L2974.82+3357.62L2974.65+3355.65C2974.65+3355.65+2976.26+3355.83+2976.26+3355.83ZM2973.93+3374.3L2976.62+3376.1L2976.98+3378.07L2975.18+3378.79L2972.49+3378.79L2970.34+3377.71L2969.98+3376.46L2971.78+3375.38C2971.78+3375.38+2973.93+3374.3+2973.93+3374.3ZM2978.41+3378.97L2980.03+3378.43L2982+3380.22L2983.25+3383.81L2981.46+3385.78L2978.95+3386.68L2977.34+3383.63L2975.54+3381.48L2973.21+3380.76L2974.65+3380.58C2974.65+3380.58+2978.41+3378.97+2978.41+3378.97ZM2942.09+3305.82L2948.68+3302.52L2953.75+3303.54L2955.02+3307.09C2955.02+3307.09+2954.77+3309.88+2953.75+3310.38C2952.74+3310.89+2949.44+3312.41+2949.44+3313.68C2949.44+3314.95+2946.4+3320.53+2946.4+3320.53C2946.4+3320.53+2943.35+3321.04+2941.83+3320.02C2940.31+3319.01+2939.04+3318.5+2938.53+3317.23C2938.03+3315.97+2937.52+3312.67+2937.52+3312.67L2938.53+3309.62L2940.06+3309.37C2940.06+3309.37+2940.06+3307.85+2940.06+3306.83C2940.06+3305.82+2939.29+3304.04+2940.31+3304.55C2941.32+3305.06+2942.59+3306.33+2942.09+3305.82ZM2887.57+3489.73L2884.25+3492L2878.93+3491.49L2871.32+3490.22L2869.79+3486.93L2867.26+3479.57C2867.26+3479.57+2863.96+3476.53+2862.44+3476.53C2860.92+3476.53+2856.1+3475+2854.83+3474.24C2853.56+3473.48+2850.77+3473.48+2850.77+3473.48L2844.94+3472.47L2844.18+3469.68L2847.73+3465.11L2851.79+3459.53L2855.34+3458.01L2856.61+3460.55L2864.21+3461.05L2869.79+3460.8L2874.11+3461.31L2881.46+3463.59L2887.04+3463.08L2893.64+3462.83L2897.44+3464.35C2897.44+3464.35+2900.23+3467.14+2901.25+3467.65C2902.26+3468.15+2906.83+3470.69+2908.1+3471.45C2909.36+3472.21+2914.94+3471.2+2914.94+3471.2L2921.03+3468.92L2926.11+3466.13L2930.67+3462.07L2934.73+3460.04L2939.29+3456.99L2942.85+3457.76L2946.65+3459.28L2950.07+3456.63L2955.1+3447.3L2957.25+3440.13L2958.68+3435.11L2957.25+3425.78L2959.4+3425.78L2966.57+3426.5L2975.18+3426.5L2983.79+3428.65L2990.97+3428.65L2998.14+3427.93L3001.73+3422.91L3001.73+3417.17L2996.71+3414.3L2990.97+3417.89L2988.81+3417.89L2988.81+3412.15L2992.4+3415.02L2996.71+3413.58L3001.73+3412.15L3001.73+3406.41L2998.86+3404.97L2995.27+3403.54L2997.42+3396.37L2999.58+3390.63L2999.58+3386.32L2996.71+3377.71L2991.68+3372.69L2985.94+3369.1L2983.79+3361.93L2981.64+3351.88L2972.31+3348.3L2971.6+3341.84L2971.6+3336.1L2973.03+3324.62L2968.73+3317.45L2962.27+3315.3L2957.96+3308.12L2957.96+3300.23L2954.38+3298.08L2944.33+3295.93L2936.34+3295.7L2936.09+3292.03L2936.1+3287.7L2935.7+3285.1L2934.79+3282.83L2932.89+3281.7L2930.79+3280.41L2929.28+3278.08L2923.61+3262.69L2946.98+3252.74L2949.25+3251.79L2964.12+3249.72L2976.46+3246.25L3022.09+3237.78L3046.02+3234.25L3047.33+3234.31L3048.57+3234.37L3050.35+3233.97L3073.27+3226.93L3076.15+3225.39L3078.57+3223.57L3079.13+3221.83L3080.4+3214.37L3077.68+3213.55L3074.34+3219.64L3072.5+3221.35L3064.33+3224.72L3054.24+3228.7L3050.99+3229.42L3047.59+3229.5L3045.01+3228.41L3043.64+3226.12L3043.16+3224.24L3043.15+3222.49L3042.75+3217.64L3042.59+3215.64L3042.35+3213.29L3040.48+3210.26L3038.4+3208.68L3035.28+3207.36L2999.36+3192.91L2994.08+3197.12L2989.29+3200.64L2984.28+3203.71L2979.67+3204.76L2976.08+3204.3L2972.12+3202.58L2969.8+3200.65L2969+3199.56L2967.68+3197.72L2966.88+3195.36L2979.55+3153.29L2993.42+3129.83L3009.81+3112.4L3022.44+3094.42L3014.26+3078.22L3003.38+3062.59L3001.86+3059.7L2998.48+3050.85L2996.72+3046.05L3000.09+3044.79L3004.16+3043.22L3004.98+3042.86L2999.12+3029.94L2992.82+3016.9L2989.97+3011.84L2984.81+2995.64L2984.8+2988.12L2984.56+2956.47L2984.4+2939.45L2984.16+2933.06L2984+2924.87L2984.08+2921.26L2985.35+2920.72L2989.62+2918.96L2991.72+2902.88L2991.16+2902.6L2980.92+2898.27L2977.13+2898.27L2969.04+2898.32L2963.73+2898.58L2953.96+2888.36L2954+2883.75L2954.87+2880.63L2956.39+2878.51L2957.8+2876.61L2958.77+2873.04L2959.49+2868.87L2956.96+2865.92L2934.34+2841.67L2978.92+2803.96L2981.13+2803.26L2983.05+2801.84L2983.61+2799.03L2981.57+2794.4L2978.65+2789.72L2976.71+2787.99L2976.23+2787.6L2962.48+2772.68L2964.35+2765.96L2966.18+2757.5L2967.09+2752.93L2946.96+2726.7L2918.04+2707.72L2912.91+2700.26L2904.75+2653.7L2877.75+2637.94L2892.64+2636.65L2905.58+2633.12L2911.61+2630.85L2919.56+2626.96L2935.96+2616.2L2942.31+2610.1L2966.35+2584.35L2967.57+2581.52L2969.22+2577.04L2969.78+2575.05L2968.83+2545.36L2968.11+2539.13L2968.27+2535.48L2990.52+2503.18L3012.84+2485.11L3016.06+2484.5L3027.87+2479.77L3029.12+2476.69L3029.15+2473.14L3028.75+2470.28L3022.47+2441.43L3021.56+2438.16L3020.52+2435.07L3012.56+2425.99L3013.43+2423.84L3016.28+2420.6L3054.64+2386.84L3071.92+2378.2L3074.62+2380.89L3076.98+2382.15L3081.08+2383.27L3084.21+2383.38L3087.68+2382.41L3088.92+2380.25L3088.76+2377.26L3088.6+2375.78L3087.12+2361.18L3087.84+2332.2L3083.62+2330.65L3080.41+2329L3077.24+2326.78L3076.84+2324.05L3076.28+2306.27L3080.3+2305.49L3083.8+2304.27L3087.4+2301.68L3105.28+2283.84L3107.02+2266.71L3125.04+2193.85L3126.62+2191.04L3142.28+2167.88L3158.32+2152.72L3162.22+2152.2L3166.13+2150.84L3169.4+2148.97L3175.32+2141.62L3174.32+2150.57L3176.94+2153.88L3178.35+2154.92L3181.53+2155.42L3190.69+2156.61L3197.83+2157.65L3210.53+2159.95L3210.56+2160.95L3210.64+2170.17L3204.4+2203.11L3203.84+2205.73L3202.82+2208.28L3193.17+2231.35L3174.83+2264.7L3173.37+2267.18L3168.07+2273.63L3167.51+2273.72L3161.06+2275.16L3154.85+2275.01L3152.85+2274.43L3150.72+2274.51L3129.73+2283.93L3128.6+2284.67L3119.27+2301.69L3118.71+2303.47L3126.49+2316.04L3129.21+2318.04L3131.04+2318.88L3132.9+2319.44L3134.38+2320.24L3141.03+2324.89L3143.08+2326.77L3145.05+2329.09L3146.6+2331.74L3160.91+2358.31L3166.76+2369.93L3168.82+2375.55L3185.36+2394L3187.48+2395.94L3200.92+2397.48L3225.8+2406.54L3253.32+2422.66L3253.72+2424.13L3253.48+2426.24L3254.73+2436.39L3255.29+2439.63L3256.4+2442.32L3258+2444.04L3260.77+2445.15L3265.46+2446.43L3273.21+2447.99L3293.52+2451.9L3298.2+2452.32L3301.69+2451.24L3304.59+2449.71L3306.96+2447.95L3308.12+2445.22L3308.17+2442.48L3308.41+2439.4L3309.22+2436.43L3310.69+2434.98L3322.61+2434.14L3349.66+2433.64L3358.43+2436.88L3365.88+2440.57L3367.07+2440.4L3384.16+2413.12L3385.78+2410.44L3389.55+2401.71L3389.31+2399.71L3388.99+2397.19L3389.05+2395.2L3389.69+2393.69L3392.07+2388.72L3393.24+2386.54L3411.31+2367.32L3425.5+2362.96L3427.2+2362.57L3429.96+2362.92L3435.13+2363.58L3461.05+2371.51L3463.09+2372.4L3464.09+2373.52L3469.16+2378.48L3471.39+2380.05L3475.25+2382L3499+2385.43L3504.48+2385.79L3506.7+2385.23L3533.44+2371.48L3559.27+2397.44L3560.56+2414.24L3553.89+2457.05L3542.27+2504.36L3542.11+2506.8L3542.27+2512.47L3543.16+2517.26L3544.93+2522.81L3547.21+2529.2L3549.08+2534.43L3550.92+2539.96L3553.98+2549.27L3554.22+2550.2L3554.06+2557.62L3553.26+2559L3551.84+2561.21L3533.37+2584.36L3513.5+2608.44L3503.55+2623.28L3502.54+2625.2L3502.14+2626.04L3500.58+2629.69L3489.48+2657.76L3480.82+2680.1L3479.42+2683.32L3477.68+2687.23L3475.61+2687.88L3471.92+2689.29L3464.72+2693.25L3457.85+2697.44L3455.07+2699.41L3452.43+2701.29L3436.01+2717.67L3437.44+2719.29L3439.43+2721.77L3442+2725.57L3443.26+2727.76L3443.98+2729.12L3444.38+2730.09L3444.3+2730.6L3443.1+2731.48L3440.26+2732.03L3437.82+2731.62L3437.58+2731.58L3426.78+2726.43L3433.56+2768.52L3434.2+2773.28L3433.72+2774.87L3400.68+2838.07L3399.11+2840.84L3395.32+2846.77L3391.29+2851.92L3391.61+2835.6L3387.82+2846.42L3382.83+2863.89L3383.07+2877.12L3384.02+2888.67L3389.44+2892.6L3392.76+2894.98L3396.91+2897.59L3399.82+2899.31L3402.72+2901.56L3411.14+2909.62L3418.25+2918.31L3420+2920.78L3443.12+2971.26L3444.36+2974.35L3444.52+2975.88L3442.12+3001.6L3442.94+3014.7L3408.29+3039.4L3408.69+3040.28L3410.74+3044.36L3411.88+3051.67L3410.6+3053.21L3409.32+3054.64L3409.16+3054.79L3406.81+3055.56L3404.01+3055.9L3403.69+3055.89L3395.59+3072.09L3398.97+3098.24L3400.64+3105.67L3401.36+3108.59L3401.04+3110.67L3400.88+3111.28L3400.8+3111.67L3400.48+3112.07L3400.08+3112.39L3399.44+3112.79L3398.96+3113.03L3397.01+3113.57L3395.92+3113.83L3394.98+3113.84L3335.63+3102.11L3333.01+3098.66L3320.96+3080.41L3312.55+3067.4L3311.74+3065.97L3305.08+3055.31L3298.75+3045.66L3298.11+3044.77L3297.39+3043.78L3296.75+3042.88L3295.88+3041.8L3294.22+3039.88L3293.5+3039.04L3292.94+3038.49L3288.68+3035.28L3287.63+3034.52L3284.85+3032.79L3273.48+3026.23L3271.88+3028.55L3272.8+3029.12L3273.6+3029.59L3275.52+3030.56L3276.33+3030.87L3276.73+3030.9L3277.05+3030.85L3277.85+3030.88L3278.41+3031.05L3280.54+3031.83L3281.64+3032.29L3283.19+3033.12L3283.67+3033.4L3285.08+3034.31L3286.3+3035.12L3287.02+3035.59L3287.58+3036.13L3288.22+3036.73L3289.32+3038L3289.88+3038.71L3296.36+3047.32L3303.8+3058.24L3304.12+3058.8L3313.28+3078.17L3311.84+3079.37L3308.21+3081.94L3307.14+3080.8L3305.03+3078.25L3304.15+3077.17L3303.35+3076.11L3300.82+3072.99L3298.92+3070.64L3297.32+3068.87L3295.52+3069.21L3270.36+3078.4L3266.04+3083.16L3264.42+3085.82L3270.64+3093.99L3275.73+3098.13L3284.09+3103.84L3281.04+3116.54L3271.62+3125.83L3269.6+3128.32L3268.61+3129.72L3258.82+3144.12L3255+3145.74L3254.44+3146L3254.04+3146.46L3252.8+3148.19L3252.08+3149.52L3241.35+3170.5L3239.62+3175.63L3239.22+3179.48L3239.18+3180.12L3239.34+3197.07L3239.42+3197.46L3252.94+3230.69L3263.53+3243.88L3282.22+3266.73L3328.04+3296.91L3330.58+3300.93L3330.74+3301.65L3328.65+3308.63L3327.64+3308.31L3326.84+3313.74L3325.89+3315.31L3324.06+3317.4L3322.31+3318.2L3319.51+3318.76L3296.88+3317.56L3269.83+3316.84L3265.8+3318.15L3244.43+3329.48L3230.67+3336.8L3226.32+3339.13L3219.85+3343.54L3213.58+3349.07L3203.82+3356.4L3196.04+3360.87L3192.3+3362.84L3149.39+3384.99L3144.59+3385.98L3122.7+3387.51L3120.68+3387.54L3118.37+3387.46L3109.35+3386.74L3107.6+3385.84L3103.88+3380.06L3102.61+3377.48L3101.97+3376.16L3100.6+3374.45L3098.14+3371.85L3096.12+3369.73L3094.7+3368.48L3089.48+3364.64L3086.74+3362.97L3085.51+3362.65L3082.72+3362.17L3079.48+3361.69L3078.36+3361.67L3079.44+3365.32L3081.56+3372.12L3089.61+3377.51L3097.4+3385.37L3098.29+3389.03L3097.17+3390.82L3076.05+3422.86L3073.18+3426.29L3070.83+3428.37L3059.68+3438.04L3058.23+3437.48L3054.34+3437.64L3052.37+3438.36L3048.98+3439.7L3032.12+3447.88L3003.9+3465.64L3001.14+3467.67L2979.07+3483.44L2977.48+3483.12L2940.3+3482.56L2920.96+3484.25L2888.82+3489.01C2888.82+3489.01+2887.57+3489.73+2887.57+3489.73Z" fill="#ffffff" stroke-linecap="butt" opacity="1" stroke-linejoin="miter"/>
</g>
<g id="Udine" vectornator:layerName="Udine">
<path stroke="#000000" stroke-opacity="0" stroke-width="3" d="M2238.42+3403.71L2239.08+3406.32L2245.24+3408.34L2247.1+3410.28L2248.08+3414.06L2248+3415.29L2247.6+3417.44L2246.88+3420.03L2244.68+3425.02L2240.37+3431.61L2236.19+3436.78L2233.84+3439.65L2224.67+3448.48L2219.95+3452.96L2208.95+3461.96L2196.49+3472.1L2186.1+3480.4L2172.74+3491.27L2166.96+3496.21L2152.91+3508.8L2150.44+3511.07L2136.53+3525.21L2134.23+3527.71L2132.44+3529.81L2130.97+3531.87L2129.12+3534.67L2122.36+3547.52L2119.18+3555.21L2116.96+3561.06L2113.96+3570.2L2110.21+3583.97L2106.12+3604.6L2101.96+3601.64L2099.87+3600.13L2069.21+3576.65L2062.01+3559.57L2062.17+3558.93L2062.33+3558.08L2062.36+3557.28L2062.32+3556.72L2062+3555.47L2061.52+3554.57L2060.8+3553.77L2060+3553.13L2058.41+3551.94L2053.05+3549.19L2052.09+3548.95L2049.96+3548.31L2048.4+3547.99L2046.08+3547.67L2043.54+3547.51L2041.32+3547.43L2039.92+3547.45L2038.13+3547.61L2036.35+3547.93L2034.97+3548.25L2032.87+3549.14L2027.02+3551.92L2023.7+3553.87L2021.84+3555.13L2018.4+3557.35L2014.8+3559.22L2013.6+3559.78L2011.65+3560.34L2010.6+3560.66L2009.96+3560.68L2009.32+3560.62L2008.6+3560.3L2008.12+3559.98L2006.71+3558.81L2005.9+3557.76L2005.18+3556.58L2004.22+3554.84L2003.66+3553.62L2002.11+3549.2L2001.31+3546.66L2001.25+3545.86L2001.17+3544.37L2001.01+3539.16L2001+3536.16L2001.08+3534.49L2001.4+3532.94L2003.16+3527.12L2003.32+3526.72L2005.57+3521.87L2014.68+3506L2014.28+3500.68L2010.31+3489.12L2009.19+3486.01L2005.44+3479L2002.74+3476.19L1999.79+3474.96L1996.74+3474.64L1993+3475.12L1987.65+3479.42L1984.77+3481.88L1983.44+3482.6L1982.43+3482.28L1980.51+3481.64L1976.79+3478.89L1956.6+3460.44L1953.87+3457.76L1951.78+3453.55L1951.7+3449.99L1952.74+3447.23L1953.64+3446.01L1954.12+3445.93L1955.31+3445.69L1958.65+3446.6L1962.36+3447.4L1964.48+3447.16L1966.11+3446.76L1968.08+3445.29L1970.31+3442.6L1972.38+3438.68L1974.19+3434.96L1975.54+3430.92L1977.35+3424.59L1977.83+3421.22L1977.02+3417.79L1975.27+3414.49L1971.68+3412.64L1968.42+3412.24L1964.7+3413.08L1963.22+3414.77L1962.25+3417.52L1961.37+3420.95L1960.32+3423.47L1958.63+3423.79L1957.29+3424.03L1955.49+3423.71L1936.77+3406.78L1933.58+3403.79L1932.31+3400.79L1932.28+3400.71L1932.68+3398.28L1938.5+3361L1940.39+3331.43L1939.83+3328.46L1938.5+3325.24L1935.23+3322.08L1930.78+3319.14L1924.19+3315.29L1920.89+3313.49L1917.63+3312.21L1913.4+3309.6L1909.7+3306.04L1907.87+3301.05L1907.95+3294.94L1908.75+3288.72L1909.47+3284.68L1910.42+3280.98L1910.66+3279.91L1912.55+3275.59L1913.03+3271.87L1912.55+3271.39L1911.26+3269.97L1908.57+3269.25L1906.84+3269.41L1905.8+3269.57L1902.51+3271.15L1897.84+3274.06L1892.87+3278.12L1887.65+3282.48L1878.57+3291.81L1877.46+3293.72L1877.62+3296.69L1878.1+3300.74L1878.07+3304.82L1877.99+3307.92L1877.43+3309.54L1876.71+3311.78L1874.71+3313.93L1871.68+3315.84L1869.8+3316.81L1866.83+3316.97L1865.4+3316.49L1863.71+3315.93L1862.37+3315.45L1860.68+3314.81L1857.92+3313.61L1856.58+3312.45L1854.9+3308.06L1854.42+3302.88L1854.58+3298.16L1854.82+3296.39L1855.65+3290.41L1858.31+3285.93L1861.8+3283.37L1865.87+3281.11L1870.39+3278.97L1873.78+3277.08L1876.36+3275.28L1877.48+3272.9L1876.37+3253.46L1875.47+3251.06L1872.61+3249.06L1869.55+3247.6L1866.31+3246.68L1862.71+3245.51L1857.7+3243.76L1852.28+3241.1L1847.78+3237.37L1840.75+3231.33L1838.21+3228.2L1837.35+3224.96L1837.59+3222.34L1844.66+3199.8L1852.95+3184.4L1854.59+3166.35L1826.16+3149.16L1801.61+3128.58L1783.47+3090.1L1783.54+3068.37L1804.86+3058.08L1807.53+3056.66L1810.55+3054L1811.78+3050.92L1811.7+3046.96L1810.75+3043.1L1808.83+3040.08L1806+3037.78L1804.3+3038.19L1803.39+3038.44L1801.69+3039.6L1801.37+3039.96L1799.99+3042.76L1799.19+3046.16L1798.63+3049.45L1798.31+3053.23L1797.27+3055.91L1794.26+3058.62L1790.07+3059.71L1786.5+3058.92L1783.91+3057.32L1783.67+3056.99L1782.2+3055.06L1765.25+3022.9L1763.7+3019.28L1764.59+3015.84L1774.43+2993.88L1776.75+2990.84L1779.29+2990.09L1779.85+2989.93L1783.9+2988.8L1785.59+2988.49L1789.59+2989.68L1790.99+2992.75L1791.92+2997.47L1792.56+3001.4L1794.12+3005.33L1796.67+3008.21L1799.8+3011.04L1802.81+3011.74L1806.2+3010.68L1807.41+3010.18L1808.92+3009.38L1811.44+3006.22L1815.3+2997.34L1816.38+2992.21L1815.9+2989.24L1812.75+2986.84L1808.46+2983.69L1803.38+2980.24L1802.66+2979.74L1798.07+2977.28L1797.99+2977.24L1794.25+2976.17L1792.72+2975.95L1790.17+2975.56L1785.46+2975.92L1783.75+2976.12L1779.69+2976.84L1778.05+2976.67L1775.08+2976.36L1771.58+2975.4L1770.25+2974.88L1768.03+2974.02L1762.18+2970.37L1761.38+2968.92L1762.46+2963.85L1763.71+2961.67L1767.5+2961.76L1770.76+2960.54L1772.39+2959.89L1775.21+2956.64L1776.77+2955.69L1778.13+2954.84L1785.77+2945.2L1772.55+2950L1772.15+2958.04L1771.05+2958.34L1770.81+2958.41L1769.64+2958.73L1767.99+2959.12L1764.53+2959.3L1762.82+2956.64L1761+2953.04L1756.11+2942.48L1755.63+2940.27L1758.89+2937.13L1777.64+2920.97L1778.66+2923.21L1785.19+2923L1787.51+2922.65L1790.47+2921.94L1791.77+2921.24L1785.21+2857.44L1779.31+2830.95L1765.67+2779.75L1752.83+2769.18L1738.01+2757.23L1719.43+2742.56L1717.56+2741.79L1710.6+2740.32L1707.56+2739.68L1704.89+2739.41L1699.41+2739.13L1671.23+2719.69L1667.02+2714.72L1654.67+2706.92L1647.52+2702.58L1633.04+2683.44L1622.35+2669.13L1620.3+2665.6L1609.88+2641.73L1605.02+2629.64L1591.63+2565.41L1586.15+2535.28L1584.25+2524.8L1574.82+2457.52L1574.74+2451.27L1578.07+2420.79L1579.98+2404.27L1581.43+2397.75L1589.31+2367.04L1596.94+2322.95L1596.14+2310.74L1596.12+2307.8L1596.36+2303.91L1596.76+2299.67L1602.97+2241.89L1605.05+2221.7L1608.36+2174.41L1606.98+2151.84L1606.74+2131.18L1607.38+2113.93L1608.66+2106.08L1607.86+2079.61L1608.73+2069.84L1609.96+2060.16L1611.19+2055.4L1613.53+2049.38L1621.13+2032.02L1637.53+1990.16L1643.33+1950.71L1652.71+1888.27L1655.35+1876.68L1658.77+1864.14L1663.07+1853.1L1665.87+1853.74L1670.64+1837.72L1672.23+1831.96L1672.95+1828.2L1673.35+1825.67L1672.79+1819.48L1673.03+1815.92L1674.18+1812.08L1682.86+1801.68L1693.55+1782.98L1691.46+1774.31L1691.86+1770.77L1694.23+1764.32L1698.55+1760.02L1701.43+1755.8L1714.7+1702.84L1718.99+1670.22L1718.27+1665.75L1717.95+1661.64L1717.91+1657.34L1719.12+1653.41L1723.33+1643.69L1725.59+1639.37L1729.99+1634.14L1735.57+1629.91L1740.23+1626.79L1732.48+1613.45L1729.13+1608.53L1722.48+1599.64L1722.4+1599.53L1718.51+1595.42L1718.19+1595.44L1714.58+1595.71L1709.12+1595.83L1698.9+1593.96L1697.27+1593.64L1696.29+1593.24L1685.79+1584.38L1685.39+1582.88L1683.04+1573.76L1682.72+1572.67L1680.02+1571.06L1669.4+1566.6L1665.95+1565.81L1698.59+1548.41L1715.25+1527.61L1723.59+1513.21L1724.39+1512.42L1725.66+1511.12L1726.22+1510.54L1740.79+1499.96L1750.56+1494.04L1759.23+1490.2L1761.65+1488.91L1766.75+1479.68L1765.06+1461.65L1763.78+1458.16L1762.84+1426.33L1766.68+1422.88L1768.55+1419.77L1772.86+1411.95L1773.42+1409.78L1769.79+1395.41L1768.97+1393.42L1766.03+1386.97L1763.68+1380.56L1770.96+1364.46L1774.4+1362.12L1781.49+1359.88L1791.91+1355.92L1796.39+1354.14L1799.37+1352.6L1800.76+1351.88L1803.76+1349.9L1805.85+1348.4L1808.76+1345.84L1795.26+1337.36L1744.68+1308.01L1741.25+1305.6L1717.11+1279.09L1715.7+1274.7L1708.97+1248.34L1709.13+1245.91L1709.95+1242.59L1715.26+1234.75L1718.33+1233.1L1720.71+1232.85L1722.93+1232.21L1728.59+1230.24L1729.07+1229.9L1730.51+1228.78L1753.47+1206.34L1762.55+1196.93L1766.92+1190.21L1768.49+1187.32L1767.77+1184L1762.76+1163.71L1762.92+1148.58L1747.05+1144.28L1742.54+1141.96L1737.93+1138.84L1734.33+1135.73L1732.13+1133.45L1731.57+1131.67L1729.59+1117.18L1724.59+1116.4L1722.34+1116.26L1697.7+1119.88L1685.6+1125.95L1683.42+1128.12L1670.79+1128.11L1660.81+1128.09L1657.58+1125.59L1653.87+1122L1648.05+1114.64L1647.33+1113.43L1645.14+1109.33L1641.97+1105.13L1640.67+1103.65L1639.44+1102.42L1630.91+1094.52L1620.86+1088.74L1604.41+1081.32L1603.44+1084.24L1596.57+1098.72L1587.52+1116.95L1585.69+1120.32L1581.83+1125.2L1545.06+1139.62L1541.01+1140.09L1519.84+1141.65L1516.07+1140.8L1498.79+1133.36L1498.47+1132.1L1498.95+1130.28L1499.43+1128.85L1502.23+1122.94L1506.51+1112.26L1510.99+1099.93L1510.59+1099.3L1508.67+1098.52L1506.96+1099.92L1504.68+1101.16L1502.83+1101.21L1499.15+1100.36L1475.89+1093.54L1460.62+1086.96L1457.93+1085.92L1456.05+1085.39L1442.55+1087.54L1431.83+1089.32L1421.65+1091.12L1407.67+1093.8L1403.26+1095.11L1392.86+1094.2L1389.18+1093.2L1386.88+1090.29L1386.16+1086.72L1385.68+1083.03L1383.41+1079.6L1365.4+1057.81L1353.43+1046.44L1347.75+1044.4L1344.47+1043.45L1339.91+1042.25L1327.92+1039.1L1326.03+1037.92L1319.43+1035.32L1315.56+1039.86L1312.59+1043.4L1310.14+1046.01L1309.02+1047.2L1301.94+1048.48L1289.51+1050.15L1266.15+1046.16L1234.73+1050.08L1234.57+1051.44L1236.49+1056.87L1238.46+1060.54L1242.16+1065.96L1235.33+1085.44L1203.47+1097.14L1185.77+1102L1166.35+1106.54L1154.21+1108.4L1150.79+1108.07L1116.84+1118.72L1092.51+1136.49L1090.77+1139.26L1081.51+1145.64L1055.03+1156.53L1046.57+1159.21L1042.83+1157.44L1008.22+1111.34L1007.03+1109.24L1006.47+1107.08L1005.75+1104.39L1005.67+1102.17L1006.07+1094.96L1003.63+1093.88L998.114+1091.56L966.202+1079.1L924.81+1084L919.498+1085.69L915.642+1087.88L907.05+1100.73L905.906+1103.38L905.106+1106.48L904.234+1108.81L902.522+1111.23L900.978+1112.16L885.066+1117.73L881.602+1118.02L877.978+1117.6L857.402+1108.91L854.906+1108.69L842.578+1096.04L840.29+1092.72L838.818+1088.4L838.418+1086.12L836.938+1084.85L828.674+1079.68L825.794+1078.6L803.73+1083.6L795.098+1086.72L790.674+1088.58L788.826+1091.08L785.562+1093.04L782.114+1093.88L778.482+1092.97L770.746+1090.32L741.474+1074.4L753.418+1066.56L755.066+1065.65L763.034+1058.22L767.858+1053.72L768.338+1052.17L768.098+1049.95L767.05+1047.79L716.922+1007.2L715.41+1007.13L708.474+1009.43L705.45+1011.27L703.762+1013.41L701.722+1015.15L699.962+1016.12L693.146+1017.99L660.802+1009.2L639.074+1002.2L633.306+1013.64L631.794+1016.44L629.37+1019.59L626.242+1022.54L623.522+1024.98L617.066+1028.1L600.122+1035.23L597.306+1033.77L583.57+1024.96L581.274+1023.28L578.722+1020.9L578.482+1020.64L564.242+1005.24L561.306+1000.2L558.626+994.78L555.146+987.164L553.386+979.86L548.994+961.204L542.242+930.732L540.634+921.58L539.362+910.132L538.002+898.036L533.17+893.548L533.106+893.492L527.178+890.332L513.778+883.292L485.418+853.652L481.802+847.5L470.562+826.948L465.53+806.324L465.05+804.236L466.442+801.876L468.93+797.788L475.738+789.18L482.426+774.588L482.186+771.204L483.314+768.396L491.65+755.404L494.362+751.724L497.674+747.74L501.138+744.348L522.466+726.316L526.69+724.172L541.618+718.396L560.73+700.852L558.874+691.58L558.314+686.892L558.346+681.724L558.418+677.98L559.474+675.236L566.898+659.852L568.562+658.372L569.042+658.484L584.73+677.068L597.898+679.98L598.618+678.508L609.37+668.068L616.986+661.428L637.53+643.54L647.922+636.076L666.602+623.956L674.114+620.524L718.282+628.804L736.13+635.18L741.098+637.46L754.49+649.348L761.458+655.996L767.762+659.604L771.538+661.26L773.49+660.7L775.41+657.3L778.722+651.996L800.426+627.1L802.65+625.396L804.162+624.236L808.266+621.972L811.146+620.948L845.034+624.316L854.642+626.98L869.418+631.836L873.49+635.948L876.338+641.492L887.482+652.524L902.938+656.484L907.458+657.324L915.33+654.62L923.418+647.5L923.578+645.18L923.626+643.18L908.642+600.172L901.026+588.604L898.626+587.076L895.642+586.132L892.242+584.484L872.978+570.124L869.386+566.812L836.162+530.076L836.322+529.612L838.53+520.444L840.49+507.692L840.65+503.644L840.49+500.684L837.81+488.98L849.642+483.236L863.282+476.436L871.546+472.108L886.306+464.34L891.834+462.316L953.682+440.796L959.25+438.964L972.306+431.372L976.194+428.636L977.61+426.468L977.658+426.396L977.978+423.884L979.274+418.812L979.994+416.836L983.066+412.724L1001.03+396.028L1004.83+393.708L1021.65+385.956L1069.67+370.324L1087.07+378.276L1104.38+387.452L1151.39+379.556L1159.06+374.868L1156.11+373.148L1153.07+371.284L1149.79+368.852L1143.76+363.972L1120.69+340.116L1113.33+326.428L1113.49+309.228L1114.54+285.244L1121.81+273.732L1126.75+270.652L1135.18+265.404L1139.41+260.46L1139.57+258.828L1138.74+253.068L1137.41+245.452L1135.99+239.372L1135.03+235.62L1134.87+235.58L1132.44+235.068L1129.03+217.476L1128.71+214.22L1129.27+210.82L1130.96+205.516L1134.1+188.612L1121.86+157.564L1116.49+151.1L1113.71+148.588L1111.68+146.364L1111.65+146.332L1103.11+136.38L1102.47+126.78L1101.26+103.092L1103.62+79.2279L1099.29+65.0039L1099.61+62.6759L1101.96+60.2599L1105.18+58.2359L1111.51+52.6999L1112.39+49.9799L1161.97+12.2759L1164.39+10.8759L1177.59+4.62793L1186.34+3.26793L1192.13+2.49993L1226.47+6.17193L1233.07+7.61193L1248.51+11.0439L1281.59+21.4599L1283.45+24.8359L1283.49+28.4519L1285.76+34.5879L1287.53+38.4919L1298.68+49.2679L1302.71+52.9159L1320.39+61.9159L1320.15+61.6119L1346.13+72.3479L1351.45+70.9559L1364.24+67.5079L1371.87+63.3079L1378.12+63.8999L1395.45+75.3079L1395.29+76.5559L1394.09+79.8759L1390.15+89.6279L1387.63+93.8279L1386.45+98.8519L1385.42+113.996L1385.18+130.884L1385.58+135.452L1390.39+139.812L1396.83+144.14L1409.91+149.212L1421.67+152.852L1435.04+155.452L1443.1+155.212L1449.23+154.26L1458.04+149.684L1482.99+142.996L1495.21+143.628L1511.26+145.5L1533.03+148.892L1550.25+142.988L1578.62+145.548L1616.83+141.852L1624.46+141.052L1630.39+140.004L1655.42+141.924L1658.01+143.996L1675.15+155.572L1686.93+160.972L1692.34+163.012L1696.6+164.276L1698.23+163.396L1705.54+159.02L1709.42+156.436L1712.27+154.02L1717.22+151.004L1747.96+160.668L1771.16+167.54L1797.71+174.916L1801.11+175.716L1811.35+175.212L1815.09+170.252L1831.94+165.5L1835.59+165.052L1839.39+166.236L1869.75+170.212L1879.85+167.14L1892.15+166.02L1894.53+166.972L1897.04+168.524L1908.58+179.588L1932.79+186.1L1958.23+190.324L1962.27+190.388L1966.4+189.34L1986.93+182.74L2001.12+181.276L2011.77+176.396L2059.73+167.092L2062.49+167.516L2065.75+168.252L2078.27+171.204L2084.13+173.164L2088.19+177.604L2092.27+181.148L2097.09+183.884L2100.08+185.236L2117.99+192.404L2121.26+193.628L2126.09+191.06L2129.37+188.668L2151.25+194.476L2155.07+196.548L2161.17+200.78L2163.63+203.012L2167.11+204.1L2171.93+205.22L2247.8+214.036L2282.18+212.748L2288.67+213.708L2289.31+216.292L2290.74+223.9L2316.69+251.404L2318.98+252.836L2356.03+271.788L2360.95+273.732L2365.46+275.428L2370.91+275.108L2378.84+274.5L2382.99+273.892L2422.47+280.204L2446.15+303.012L2460.71+319.724L2461.19+321.78L2462.56+331.692L2461.67+340.1L2474.76+341.556L2488.94+330.988L2507.97+319.18L2516.15+315.084L2561.59+312.54L2569.63+313.124L2615.96+317.98L2649.8+325.724L2655.67+330.036L2661.54+334.316L2664.62+336.316L2669.32+338.844L2676.31+341.092L2683.96+343.356L2688.53+343.276L2698.15+342.628L2709.88+335.004L2731.71+315.9L2742.43+304.012L2763.6+281.74L2765.76+281.22L2798.87+285.012L2816.03+281.044L2834.74+290.884L2835.46+286.26L2834.18+279.396L2831.79+273.468L2828.56+267.54L2837.84+251.372L2839.98+247.684L2880.67+256.54L2888.4+259.148L2891.17+260.164L2937.11+277.668L2935.78+282.508L2934.6+288.5L2933.19+297.532L2932.27+303.716L2932.28+307.508L2934.9+311.308L2941.56+313.244L2982.11+324.612L2987.06+325.612L3022.95+325.54L3051.05+321.092L3111.5+326.668L3115.5+326.132L3148.07+310.044L3179.79+296.612L3184.42+296.148L3194.33+295.324L3195.87+298.524L3200.24+308.868L3203.03+319.284L3216.81+349.516L3220.48+355.196L3224.82+359.212L3232.28+362.676L3236.88+363.884L3244.51+361.46L3274.53+355.004L3280.41+351.428L3287.66+346.092L3291.14+342.516L3297.77+339.996L3313.75+341.324L3347.84+346.444L3351.44+347.084L3354.57+348.46L3366.98+364.196L3369+368.196L3371.67+382.22L3371.99+384.996L3370.82+386.244L3369.19+387.948L3368.79+390.22L3370.03+392.156L3371.83+392.852L3377.87+393.964L3386.48+395.34L3391.16+395.892L3391.24+395.9L3408.55+389.012L3408.39+384.292L3410.37+380.852L3415.52+374.46L3418.19+372.78L3431.38+366.652L3444.99+368.204L3510.29+380.316L3526.25+383.42L3530.65+385.316L3532.53+387.9L3537.38+392.956L3560.12+405.276L3561.18+405.748L3611.15+429.26L3660.09+448.9L3677.76+453.292L3697.15+455.764L3740.05+457.084L3745.99+456.636L3750.47+456.092L3754.91+452.316L3760.11+449.516L3768.19+479.124L3768.51+480.388L3769.48+485.108L3767.99+505.956L3766.95+508.644L3763.48+511.604L3759.91+512.644L3756.41+513.324L3752.67+514.54L3749.57+516.196L3737.5+523.476L3733.64+526.02L3732.15+527.46L3730.1+534.332L3729.54+536.7L3734.21+563.844L3739.78+590.588L3740.95+591.604L3748.75+598.356L3748.51+600.164L3747.19+603.084L3745.64+605.172L3744.17+607.076L3740.79+611.188L3719.3+635.532L3710.47+644.796L3712+665.036L3716.94+677.82L3719.24+686.628L3719.32+688.324L3705.66+733.18L3698.36+741.604L3694.67+745.764L3692.39+747.964L3680.16+756.74L3677.91+756.324L3598.96+739.38L3598.8+735.284L3597.79+733.228L3586.43+726.916L3583.45+725.732L3580.97+726.068L3551.37+734.06L3503.21+744.828L3453.05+753.412L3451.11+753.588L3449.24+750.932L3447.43+750.188L3446.31+750.164L3431.9+760.348L3398.74+792.236L3395.47+795.964L3394.27+813.412L3390+838.98L3386.22+859.164L3378.05+874.108L3370.79+884.876L3366.75+890.276L3363.29+894.468L3359.7+897.364L3358.07+896.868L3356.04+895.132L3354.49+894.676L3350.41+894.252L3343.91+895.324L3341.35+895.9L3334.87+903.204L3318.31+917.612L3287.24+939.596L3280.83+941.844L3240.07+947.556L3228.79+951.868L3230.39+964.812L3231.11+970.324L3229.99+972.412L3227.07+974.212L3178.87+994.532L3168.09+997.052L3153.51+999.532L3137.35+1001.88L3134.59+1002.12L3134.03+1004.23L3133.15+1007.18L3131.67+1008.71L3120.75+1019.61L3117.78+1021.99L3102.59+1030.32L3097.15+1031.65L3094.55+1031.33L3092.46+1030.15L3090.73+1027.99L3077.57+1024.12L3073.95+1023.66L3053.94+1023.4L3044.8+1023.83L3042.75+1024.25L3018.64+1033.64L3017.17+1035.12L3015.07+1038.41L3012.82+1054.6L3016.35+1058.82L3020.97+1065.16L3028.14+1075.81L3041.26+1119.12L3035.53+1139.69L3018.71+1169.68L3017.23+1171.01L3013.51+1171.88L3009.27+1171.79L3005.81+1170.76L2993.13+1169.57L2982.78+1168.7L2962.4+1184.4L2961.25+1186.1L2955.37+1196.01L2954.89+1198.7L2955.94+1214.9L2931.35+1229.32L2929.88+1231.31L2927.59+1235.75L2924.46+1242.95L2921.03+1249.6L2887.51+1252.55L2847.52+1255.97L2850.27+1268.25L2853.49+1280.94L2855.1+1284.08L2857.71+1288.12L2859.95+1289.28L2863.69+1289.18L2867.49+1285.16L2869.59+1283.21L2871.27+1285.39L2875.84+1292.36L2891.56+1323.87L2892.57+1333.04L2892.89+1337.92L2893.05+1342.4L2893.29+1345.56L2896.43+1372.09L2907.43+1410.72L2909.59+1416.68L2929.87+1452.43L2940.18+1464.72L2943.92+1467.92L2946.12+1467.9L2958.33+1472.68L2972.55+1483.14L2974.06+1484.88L2972.63+1494.88L2954.07+1541.08L2948.24+1544.42L2945+1545.25L2941.41+1545.94L2940.09+1547.81L2938.48+1550.81L2937.84+1554.75L2939.47+1558.49L2942.49+1564.12L2976.69+1585.49L2995.2+1575.91L3036.06+1562.93L3038.33+1562.16L3039.67+1559.34L3042.55+1552.34L3043.39+1550.2L3042.75+1548.03L3036.73+1528.94L3035.1+1523.98L3034.46+1522.71L3043.63+1517.72L3067.23+1513.46L3126.07+1518.61L3131.53+1519.14L3141.03+1520.16L3171.07+1528.44L3174.79+1530.4L3180.56+1538.99L3179.51+1539.69L3177.24+1541.04L3176.19+1541.45L3175.33+1542.05L3175.17+1542.68L3175.01+1543.52L3175.03+1543.92L3175.43+1544.82L3176.77+1545.51L3182.08+1548.16L3186.08+1549.93L3191.21+1551.98L3204.22+1553.47L3220.54+1554.34L3225.67+1554.23L3228.54+1552.04L3230.83+1549.67L3233.21+1548.02L3237.4+1546.24L3242.37+1544.22L3259.51+1541.01L3261.51+1540.99L3263.05+1543.28L3262.41+1564.28L3273.19+1560.7L3276.67+1560.52L3287.68+1559.96L3306.45+1564.76L3326.81+1577.26L3330.75+1579.97L3350.25+1593.6L3360.23+1629.96L3359.19+1634.07L3358.71+1651.92L3359.7+1656.31L3363.71+1659.62L3380.53+1664.88L3394.15+1660.24L3400.97+1655.29L3404.51+1652.27L3406.49+1649.77L3408.85+1647.19L3411.63+1644.6L3413.87+1643.1L3422.43+1640.92L3425.04+1642.15L3428.19+1644.25L3426.34+1651L3434.51+1649.23L3438.99+1649.08L3477.35+1658.56L3483.21+1660.08L3488.18+1662.12L3492.1+1664.13L3498.9+1661.54L3512.66+1655.31L3516.95+1653.22L3526.06+1648.22L3530.69+1645.4L3540.79+1641.41L3555.2+1647.53L3558.38+1649.16L3566.08+1648.01L3576.22+1650.01L3577.91+1650.92L3593.83+1660.61L3623.39+1679.52L3624.56+1689.88L3625.74+1708.43L3625.98+1712.6L3625.04+1716.55L3619.79+1725.51L3614.07+1731.7L3612.05+1732.72L3609.53+1733.92L3607.04+1735.52L3598.89+1744.71L3598.02+1748.7L3597.78+1758.71L3593.31+1793.38L3591.65+1798.21L3586.13+1809.28L3579.48+1821.84L3572.51+1832.28L3571.28+1833.88L3559.61+1842.79L3555.85+1843.62L3551.65+1842.75L3548.11+1842.21L3545.6+1842.68L3534.71+1852.04L3525.24+1863.27L3520.17+1873.84L3478.26+1908.7L3466.67+1916.37L3459.73+1920.08L3453.11+1937.61L3441.59+1951.75L3438.65+1953.51L3425.55+1958.36L3408.39+1964.64L3399.98+1973.28L3396.97+1976.85L3391.34+1984.94L3391.02+1985.59L3390.38+1986.76L3385.58+1996.72L3382.64+2000.29L3374.17+2005.73L3318.55+2031.16L3315.85+2030.14L3313.59+2029.08L3309.68+2027.05L3306.99+2026.92L3302.13+2027.94L3300.27+2030.09L3299.95+2030.48L3275.1+2063.72L3273.96+2066.29L3273.24+2069.95L3273.48+2073.46L3272.92+2075.77L3263.92+2082.71L3224.45+2102.35L3221.67+2103.33L3218.63+2102.95L3215.12+2101.59L3211.99+2100.18L3192.47+2100.92L3188.93+2101.94L3185.74+2104.36L3173.68+2115.28L3172.82+2117.3L3173.89+2120.28L3174.45+2121.04L3175.93+2123.08L3176.33+2138.64L3174.95+2141.32L3169.03+2148.67L3165.76+2150.53L3161.85+2151.89L3157.95+2152.42L3141.91+2167.57L3126.25+2190.74L3124.67+2193.55L3106.65+2266.4L3104.91+2283.54L3087.03+2301.38L3083.43+2303.96L3079.93+2305.19L3075.91+2305.96L3076.47+2323.75L3076.87+2326.48L3080.04+2328.69L3083.25+2330.35L3087.47+2331.9L3086.75+2360.88L3088.23+2375.48L3088.39+2376.96L3088.55+2379.95L3087.31+2382.11L3083.84+2383.08L3080.71+2382.96L3076.61+2381.84L3074.25+2380.59L3071.55+2377.9L3054.27+2386.54L3015.91+2420.29L3013.06+2423.53L3012.19+2425.68L3020.15+2434.76L3021.19+2437.85L3022.1+2441.12L3028.38+2469.97L3028.78+2472.84L3028.75+2476.39L3027.5+2479.47L3015.69+2484.2L3012.47+2484.8L2990.15+2502.88L2967.9+2535.17L2967.74+2538.83L2968.46+2545.05L2969.41+2574.75L2968.85+2576.74L2967.2+2581.22L2965.98+2584.04L2941.94+2609.8L2935.59+2615.89L2919.19+2626.66L2911.24+2630.55L2905.21+2632.82L2892.27+2636.35L2877.38+2637.64L2904.38+2653.4L2912.54+2699.96L2917.67+2707.41L2946.59+2726.4L2966.72+2752.63L2965.81+2757.2L2963.98+2765.66L2962.11+2772.37L2975.86+2787.29L2976.34+2787.68L2978.28+2789.41L2981.2+2794.1L2983.24+2798.72L2982.68+2801.54L2980.76+2802.96L2978.55+2803.65L2933.97+2841.36L2956.59+2865.61L2959.12+2868.56L2958.4+2872.74L2957.43+2876.31L2956.02+2878.2L2954.5+2880.32L2953.63+2883.44L2953.59+2888.06L2963.36+2898.28L2968.67+2898.02L2976.76+2897.96L2980.55+2897.96L2990.79+2902.29L2991.35+2902.58L2989.25+2918.66L2984.98+2920.42L2983.71+2920.96L2983.63+2924.56L2983.79+2932.76L2984.03+2939.15L2984.19+2956.16L2984.43+2987.81L2984.44+2995.34L2989.6+3011.54L2992.45+3016.6L2998.75+3029.64L3004.61+3042.56L3003.79+3042.92L2999.72+3044.48L2996.35+3045.75L2998.11+3050.55L3001.49+3059.4L3003.01+3062.28L3013.89+3077.92L3022.07+3094.12L3009.44+3112.1L2993.05+3129.52L2979.18+3152.99L2966.51+3195.06L2967.31+3197.41L2968.63+3199.25L2969.43+3200.35L2971.75+3202.28L2975.71+3204L2979.3+3204.45L2983.91+3203.4L2988.92+3200.33L2993.71+3196.82L2998.99+3192.6L3034.91+3207.05L3038.03+3208.38L3040.11+3209.96L3041.98+3212.99L3042.22+3215.34L3042.38+3217.34L3042.78+3222.19L3042.79+3223.93L3043.27+3225.81L3044.64+3228.11L3047.22+3229.2L3050.62+3229.12L3053.87+3228.4L3063.96+3224.42L3072.13+3221.04L3073.97+3219.33L3077.31+3213.24L3080.03+3214.07L3078.76+3221.52L3078.2+3223.27L3075.78+3225.08L3072.9+3226.63L3049.98+3233.67L3048.2+3234.07L3046.96+3234L3045.65+3233.95L3021.72+3237.48L2976.09+3245.95L2963.75+3249.41L2948.88+3251.48L2946.61+3252.44L2923.24+3262.39L2928.91+3277.77L2930.42+3280.11L2932.52+3281.4L2934.42+3282.52L2935.33+3284.8L2935.73+3287.4L2935.72+3291.72L2935.52+3294.82L2931.94+3296.37L2928.39+3298.97L2919.76+3298.97L2913.42+3298.97L2911.65+3296.18L2909.87+3294.66L2907.08+3294.66L2906.57+3298.46L2904.8+3299.22L2901.5+3302.01L2897.7+3301.51C2897.7+3301.51+2893.64+3302.52+2892.88+3303.54C2892.12+3304.55+2889.07+3304.8+2889.07+3304.8L2886.03+3303.03L2883.24+3299.73L2880.19+3298.72L2875.12+3298.97L2871.06+3299.73L2867+3298.72L2864.98+3296.94L2862.44+3292.38L2861.93+3289.08L2857.62+3288.32L2856.86+3284.77L2852.8+3283.75L2847.73+3281.98L2843.16+3280.71L2840.12+3277.66C2840.12+3277.66+2839.1+3279.95+2838.09+3279.95C2837.07+3279.95+2835.04+3279.44+2834.03+3279.19C2833.02+3278.93+2830.23+3276.65+2830.23+3276.65L2826.93+3272.84C2826.93+3272.84+2824.39+3270.82+2822.87+3270.82C2821.35+3270.82+2819.57+3267.01+2819.57+3267.01L2814.75+3264.73L2809.17+3263.71L2798.77+3262.19L2789.9+3260.92C2789.9+3260.92+2783.55+3259.15+2782.29+3258.89C2781.02+3258.64+2779.24+3258.89+2779.24+3258.89L2774.42+3257.37L2770.87+3255.6L2768.33+3253.57L2764.78+3253.57L2761.99+3254.58L2757.68+3253.82L2754.89+3253.06L2753.37+3248.75L2753.12+3242.41L2752.1+3239.62L2746.52+3236.83L2742.72+3235.56L2739.67+3234.54L2735.36+3234.8L2730.03+3236.57L2728+3235.3L2725.47+3232.26L2722.93+3228.46L2720.14+3228.46L2716.34+3229.98L2711.52+3231.25L2709.74+3230.23L2707.71+3227.95L2704.67+3227.19L2701.88+3225.67L2699.85+3223.38L2695.79+3225.67L2693+3224.14L2690.21+3219.83L2690.21+3215.52L2688.94+3211.71L2685.14+3209.18L2682.85+3206.9L2679.3+3206.13C2679.3+3206.13+2675.25+3209.18+2673.98+3209.69C2672.71+3210.19+2670.68+3210.19+2670.68+3210.19L2665.1+3208.92C2665.1+3208.92+2659.27+3208.92+2658.25+3208.92C2657.24+3208.92+2653.43+3208.92+2653.43+3208.92L2650.64+3205.88L2646.58+3205.88L2641.51+3208.16L2637.45+3208.42L2635.42+3206.13L2630.86+3203.85L2626.04+3203.6L2621.73+3201.82L2612.59+3200.05L2609.04+3201.57L2607.27+3205.63L2605.75+3204.61L2599.91+3204.36L2596.11+3206.13L2591.79+3207.4L2587.74+3206.13L2584.95+3207.15L2578.86+3208.92L2576.07+3204.36L2574.8+3199.79C2574.8+3199.79+2574.04+3196.75+2574.04+3195.73C2574.04+3194.72+2570.49+3194.21+2569.47+3193.96C2568.46+3193.71+2564.91+3191.93+2564.91+3191.93L2561.86+3194.72C2561.86+3194.72+2559.58+3196.5+2558.31+3197C2557.04+3197.51+2555.78+3199.03+2555.78+3199.03C2555.78+3199.03+2553.75+3202.58+2552.73+3202.58C2551.72+3202.58+2548.67+3202.33+2548.67+3202.33C2548.67+3202.33+2547.15+3200.3+2546.9+3199.29C2546.64+3198.27+2544.87+3195.48+2544.87+3195.48L2539.8+3195.48L2535.23+3198.02L2530.92+3201.32C2530.92+3201.32+2528.38+3201.82+2527.37+3201.82C2526.35+3201.82+2520.01+3202.33+2517.98+3202.33C2515.95+3202.33+2514.69+3202.58+2514.69+3202.58C2514.69+3202.58+2509.36+3201.06+2508.09+3200.81C2506.82+3200.55+2503.27+3199.03+2503.27+3199.03L2499.47+3194.97L2496.17+3193.96L2489.83+3192.69L2486.28+3192.94L2481.2+3193.71L2479.17+3192.44L2477.4+3188.89L2476.89+3186.35L2474.24+3187.05L2471.91+3189.92L2469.22+3190.46L2464.21+3190.15L2461.04+3188.89L2456.35+3187.11L2452.54+3185.84L2448.48+3184.19L2446.58+3181.91L2445.95+3178.61L2445.31+3173.67L2445.06+3169.99L2443.92+3167.58L2441.13+3164.03L2439.6+3161.24L2437.83+3157.05L2436.81+3150.71L2436.56+3144.12L2436.43+3137.52L2436.43+3130.55C2436.43+3130.55+2435.93+3126.49+2435.8+3125.98C2435.67+3125.47+2434.02+3122.68+2434.02+3122.68L2432.12+3119.89L2430.09+3119.77L2426.54+3119.39L2423.37+3118.63L2419.06+3118.63L2416.9+3119.01L2415.89+3120.27L2413.35+3121.67L2411.45+3122.94L2411.07+3125.09C2411.07+3125.09+2409.93+3127.25+2409.8+3128.01C2409.67+3128.77+2409.67+3130.04+2409.67+3130.04C2409.67+3130.04+2408.28+3131.94+2408.03+3132.58C2407.77+3133.21+2406.5+3134.48+2406.5+3134.48C2406.5+3134.48+2406.12+3136.51+2406.25+3137.01C2406.38+3137.52+2405.62+3138.03+2405.62+3138.03C2405.62+3138.03+2402.95+3138.03+2402.19+3138.03C2401.43+3138.03+2401.18+3137.01+2401.18+3137.01L2399.78+3136.51L2397.63+3137.78L2394.96+3139.68L2393.82+3141.07L2384.69+3141.71L2379.87+3141.45L2373.78+3141.33L2372.26+3140.95L2371.5+3138.66L2370.74+3136.63L2370.87+3131.94L2370.1+3129.53L2369.09+3126.74L2366.08+3125.18L2363.22+3123.38L2361.6+3120.87L2359.99+3118.54L2359.63+3116.39L2358.37+3115.31L2357.3+3115.85L2356.04+3114.77L2355.68+3112.26L2354.07+3112.08L2352.99+3113.7L2352.45+3116.03L2352.27+3118.36L2350.48+3120.69L2347.25+3121.59L2344.2+3121.77L2340.62+3121.23L2338.82+3120.51C2338.82+3120.51+2336.31+3117.46+2335.24+3116.75C2334.16+3116.03+2333.08+3114.77+2333.08+3114.77L2328.78+3116.03L2328.06+3118.72L2328.42+3122.49L2328.78+3127.33L2328.78+3131.1L2328.78+3135.76L2328.24+3138.81L2326.81+3142.75L2328.42+3145.8C2328.42+3145.8+2330.03+3146.88+2330.75+3147.24C2331.47+3147.6+2331.47+3149.03+2331.47+3149.03L2329.32+3149.57L2327.88+3150.29C2327.88+3150.29+2328.78+3152.62+2328.96+3153.52C2329.14+3154.41+2330.75+3156.74+2330.75+3156.74L2331.29+3159.61L2329.14+3161.77L2326.63+3161.23L2323.76+3159.79L2320.89+3158.18L2318.73+3158L2316.04+3158.36L2319.09+3159.97L2317.3+3160.33L2312.28+3158.54L2303.49+3157.1L2295.78+3154.41L2295.24+3157.46L2293.8+3163.02L2290.93+3165.35L2292.55+3168.22L2291.11+3169.48L2288.42+3167.68L2287.53+3171.81L2286.27+3178.8L2283.94+3181.32L2279.81+3182.57L2275.87+3187.05L2273.72+3189.21L2270.67+3193.45L2263.06+3188.38L2257.48+3184.32L2252.41+3183.81L2249.37+3190.41L2244.29+3189.39L2239.22+3191.93L2234.66+3197L2232.63+3201.06L2229.58+3206.64L2227.05+3208.16L2226.54+3213.24L2229.08+3214.76L2231.61+3215.27L2231.61+3218.31L2231.61+3220.85L2227.55+3220.34L2224+3222.37L2221.47+3217.8L2219.44+3212.22L2215.89+3208.67L2213.35+3209.69L2212.84+3211.71L2215.38+3216.79L2216.9+3220.85L2215.38+3221.86L2210.31+3218.31L2206.25+3217.8L2203.2+3217.3L2199.14+3224.4L2198.64+3219.83L2199.14+3213.74L2198.64+3207.66L2198.13+3203.6L2201.17+3201.06C2201.17+3201.06+2202.19+3201.06+2204.22+3201.06C2206.25+3201.06+2204.22+3198.53+2204.22+3198.53L2203.2+3193.96L2201.68+3189.9L2203.2+3186.35L2203.2+3181.28L2204.22+3177.73L2203.2+3175.19L2198.13+3173.16L2197.12+3168.59L2198.13+3166.06L2200.16+3163.52L2197.62+3160.98L2196.61+3164.03L2194.07+3162L2193.56+3157.43L2188.49+3158.96L2190.01+3155.4L2186.46+3154.9L2182.91+3158.45L2181.39+3155.91L2183.93+3151.85L2184.94+3145.77L2183.42+3142.72L2181.39+3145.77L2174.79+3151.35L2176.32+3154.9L2176.82+3159.46L2174.79+3159.97L2170.74+3162.51L2166.68+3163.01L2159.07+3165.04L2155.01+3165.04L2148.41+3168.09L2145.88+3169.61L2148.41+3173.16L2146.89+3176.2L2146.39+3178.74L2148.92+3186.86L2152.98+3189.39L2156.53+3192.44L2155.52+3194.97L2153.49+3197.51L2152.98+3202.58L2148.41+3205.63L2142.83+3207.66L2139.79+3213.24L2139.79+3218.31L2136.75+3221.86L2132.18+3220.85L2127.62+3222.88L2124.57+3230.48L2123.56+3235.05L2128.12+3235.05L2135.22+3231.5L2136.75+3229.47L2139.28+3226.43L2139.79+3222.37L2141.31+3223.38L2142.83+3225.41L2146.39+3229.98L2143.34+3231.5L2141.31+3235.05L2141.82+3241.14L2143.85+3247.23L2145.88+3250.78L2143.85+3252.81L2145.88+3255.85L2149.94+3257.37L2155.52+3254.33L2161.6+3250.27L2167.18+3248.75L2172.77+3244.69L2175.81+3244.69L2174.29+3248.75L2169.21+3252.3L2169.21+3254.84L2172.77+3263.97L2173.27+3269.55L2171.24+3276.14L2168.71+3283.24L2166.68+3287.3L2168.2+3290.35L2165.16+3290.85L2160.08+3289.84L2156.53+3287.3L2151.97+3289.33L2145.88+3282.74L2143.85+3278.17L2142.83+3274.11L2139.28+3272.08L2136.75+3276.14L2134.72+3276.14L2133.7+3272.59L2131.17+3268.03L2131.17+3263.46L2128.12+3263.46L2123.56+3265.49L2121.02+3265.49L2116.45+3267.01L2112.4+3265.49L2108.85+3270.56L2110.37+3275.63L2111.89+3280.71L2111.38+3283.24L2113.41+3289.33L2110.87+3288.32L2108.34+3284.77L2105.29+3283.24L2102.25+3277.66L2097.68+3276.14L2091.6+3273.61L2086.52+3273.61L2082.47+3276.65L2079.93+3281.72L2082.47+3288.82L2082.97+3293.9L2080.44+3296.43L2076.89+3298.97L2079.42+3302.01L2081.96+3307.09L2080.44+3309.12L2074.35+3312.16L2068.26+3314.7L2070.29+3321.29L2072.32+3326.36L2072.32+3329.41L2068.26+3329.92L2064.2+3329.92L2060.14+3327.89L2053.04+3331.44L2046.95+3332.45L2038.84+3336L2045.94+3337.02L2052.03+3338.03L2056.59+3343.11L2057.61+3349.7L2056.09+3355.28L2050+3353.25L2045.43+3346.66L2033.26+3346.66L2027.17+3345.13L2021.59+3354.77L2016.01+3356.3L2024.13+3365.93L2030.21+3372.02L2033.76+3384.2L2035.29+3395.36L2040.36+3405L2044.93+3406.52L2051.01+3406.52L2052.03+3408.55L2049.49+3416.16L2045.43+3420.22L2044.93+3424.27L2043.4+3428.84L2043.91+3433.4L2052.03+3429.35L2047.97+3436.45L2044.42+3436.45L2042.39+3443.55L2042.9+3450.65L2045.94+3456.74L2056.09+3464.86L2066.23+3462.32L2083.48+3457.25L2087.54+3453.19L2088.05+3447.1L2089.06+3440L2094.13+3435.94L2099.71+3432.39L2107.32+3421.23L2112.4+3413.62L2116.96+3411.59L2115.44+3415.65L2113.41+3421.74L2104.28+3436.45L2107.32+3440.51L2112.9+3443.04L2117.98+3443.04L2124.06+3447.61L2124.57+3453.19L2129.14+3452.17L2142.33+3451.67L2155.52+3445.58L2179.87+3435.43L2193.06+3431.38L2201.17+3425.29L2210.81+3416.16L2220.96+3408.55L2225.02+3401.95L2224.51+3397.39L2228.06+3399.92C2228.06+3399.92+2238.42+3403.71+2238.42+3403.71ZM2220.63+3239.43L2222.42+3237.81L2223.68+3237.63L2224.03+3240.14L2224.03+3242.3L2225.47+3243.19L2226.01+3244.45L2225.29+3245.53L2225.29+3246.96L2226.9+3248.57L2227.44+3250.37L2226.01+3249.65L2224.03+3247.86L2223.68+3246.06L2222.42+3244.81L2220.98+3243.37L2219.73+3241.76L2219.19+3240.5C2219.19+3240.5+2220.63+3239.43+2220.63+3239.43ZM2214.35+3228.31L2216.86+3226.69L2218.65+3227.23L2220.27+3229.02L2221.7+3230.82L2221.88+3234.94L2221.34+3237.28L2218.65+3237.99L2218.11+3238.71L2217.58+3240.32L2216.5+3242.12L2214.35+3241.76L2212.73+3238.89L2212.55+3236.2L2212.55+3233.15L2211.84+3231.36L2212.2+3230.1L2213.45+3228.85C2213.45+3228.85+2214.35+3228.31+2214.35+3228.31ZM2324.83+3345.79L2327.7+3344.53L2331.83+3342.92L2335.59+3344.17L2337.93+3343.81L2339.72+3339.87L2342.23+3338.97L2347.43+3339.51L2350.66+3337.54L2355.14+3337.72L2357.83+3339.15C2357.83+3339.15+2362.14+3339.15+2362.86+3339.33C2363.57+3339.51+2372.54+3339.69+2372.54+3339.69L2377.74+3339.69C2377.74+3339.69+2386.53+3339.87+2387.25+3339.69C2387.97+3339.51+2393.71+3337.72+2393.71+3337.72L2395.68+3336.64L2397.65+3334.85L2396.58+3332.69L2395.14+3330.54C2395.14+3330.54+2396.4+3329.82+2397.29+3329.82C2398.19+3329.82+2401.24+3332.51+2401.24+3332.51L2402.67+3335.56L2401.96+3338.25L2399.8+3339.69L2401.24+3339.87L2404.29+3339.33L2406.98+3337.36L2409.31+3335.02L2411.82+3333.05L2411.64+3331.08C2411.64+3331.08+2413.08+3329.82+2413.79+3329.82C2414.51+3329.82+2416.13+3331.44+2416.13+3331.44C2416.13+3331.44+2417.56+3331.98+2418.46+3331.98C2419.35+3331.98+2420.97+3333.05+2420.97+3333.05L2424.56+3333.95L2426.71+3334.85L2428.68+3333.23L2430.29+3329.64L2431.01+3328.39L2433.7+3328.93L2435.68+3328.93L2437.11+3326.6L2439.98+3325.88L2442.67+3326.42L2448.05+3327.13L2451.46+3326.6L2455.23+3323.73L2459.17+3320.14L2461.68+3318.88L2466.17+3317.99L2469.39+3317.63L2471.55+3317.99L2472.98+3319.96L2473.34+3323.9L2473.34+3325.88L2476.39+3325.52L2476.75+3322.47L2476.93+3320.14L2479.26+3319.42L2479.98+3317.27L2480.16+3313.5L2481.23+3313.5L2481.95+3314.58L2486.08+3314.4L2489.48+3314.94L2492.35+3315.47L2494.68+3317.63L2495.58+3322.83L2494.86+3326.95L2493.61+3327.31L2492.89+3330.54L2492.17+3332.51L2487.15+3331.98L2486.08+3330.72L2483.38+3331.98L2481.05+3333.77L2475.67+3336.28L2473.7+3339.15L2470.29+3341.12L2465.81+3342.74L2456.48+3343.28L2440.88+3343.81L2425.99+3345.25L2410.03+3346.5L2398.01+3348.66L2391.2+3348.66L2382.41+3350.63L2372.72+3352.06L2361.6+3354.22L2350.3+3355.83L2344.2+3355.65L2340.26+3354.57L2334.7+3353.86L2330.57+3351.53L2327.52+3348.84L2325.19+3347.22C2325.19+3347.22+2324.83+3345.79+2324.83+3345.79ZM2256.98+3388.76L2251.4+3381.15C2251.4+3381.15+2249.37+3373.04+2251.4+3372.02C2253.43+3371.01+2256.98+3371.01+2256.98+3368.98C2256.98+3366.95+2260.53+3359.34+2260.53+3359.34C2260.53+3359.34+2263.06+3358.32+2265.6+3358.32C2268.14+3358.32+2277.78+3357.82+2277.78+3357.82C2277.78+3357.82+2283.36+3355.28+2285.39+3354.77C2287.41+3354.27+2293.5+3350.21+2295.53+3350.71C2296.55+3350.97+2298.39+3350.65+2299.78+3351.6C2301.18+3352.55+2302.13+3354.77+2302.13+3354.77L2305.68+3347.67L2310.75+3341.08L2315.32+3336.51L2318.36+3339.55L2316.84+3346.15L2316.33+3352.24L2317.47+3360.61L2319.88+3367.96L2320.64+3376.21L2318.61+3377.35L2314.17+3377.73L2294.14+3389.02L2277.14+3391.05L2261.04+3390.41C2261.04+3390.41+2256.98+3388.76+2256.98+3388.76Z" fill="#ffffff" stroke-linecap="butt" opacity="1" stroke-linejoin="miter"/>
</g>
</svg>
